<?xml version="1.0" encoding="utf-8"?>
<!-- Generator: Adobe Illustrator 27.5.0, SVG Export Plug-In . SVG Version: 6.00 Build 0)  -->
<svg version="1.1" xmlns="http://www.w3.org/2000/svg" xmlns:xlink="http://www.w3.org/1999/xlink" x="0px" y="0px"
	 viewBox="0 0 3710 3710" style="enable-background:new 0 0 3710 3710;" xml:space="preserve">
<g id="Background">
	<g>
		<g>
			<rect style="fill:#FFFFFF;" width="3710" height="3710"/>
		</g>
	</g>
</g>
<g id="Illustration">
	<g>
		<path style="fill:#F4F7FA;" d="M1887.354,470.709c-721.54-21.306-1346.546,502.24-1440.974,1189.199
			C343.138,2411.004,911.374,3086.81,1610.565,3195.051c869.676,134.634,1713.211-644.234,1637.47-1489.189
			C3190.971,1069.261,2620.814,492.367,1887.354,470.709z"/>
		<g>
			<g>
				<g>
					<g>
						<g>
							<g>
								<defs>
									<path id="SVGID_1_" d="M1957.098,2634.336c38.58,47.425,75.625,82.075,115.47,126.651
										c-246.369,75.075-470.109,192.615-719.752,269.184c54.557-332.184,158.05-507.55-68.258-825.575
										c-106.202-149.244-359.245-412.271-352.527-598.637c7.653-212.323,156.783-214.406,60.476-366.35
										c-150.526-237.486-127.333-556.206,263.241-579.047c385.48-22.542,721.566,921.762,619.634,1251.28
										C1844.832,2209.618,1755.645,2386.7,1957.098,2634.336z"/>
								</defs>
								
									<linearGradient id="SVGID_00000160910280808023584050000001323842333058385318_" gradientUnits="userSpaceOnUse" x1="2243.7783" y1="3279.855" x2="207.9795" y2="-240.3757">
									<stop  offset="0" style="stop-color:#FFC444"/>
									<stop  offset="0.9964" style="stop-color:#F36F56"/>
								</linearGradient>
								
									<use xlink:href="#SVGID_1_"  style="overflow:visible;fill:url(#SVGID_00000160910280808023584050000001323842333058385318_);"/>
								<clipPath id="SVGID_00000005988049100648660600000012168300662647228351_">
									<use xlink:href="#SVGID_1_"  style="overflow:visible;"/>
								</clipPath>
								<g style="opacity:0.7;clip-path:url(#SVGID_00000005988049100648660600000012168300662647228351_);">
									<g>
										<path style="fill:#FCFDFE;" d="M1684.397,2872.577l5.488-0.839c-14.381-93.882-21.555-190.041-28.491-283.031
											l-2.647-35.33c-5.671-74.797-12.074-141.597-17.728-200.534c-3.163-33.015-6.175-64.389-8.836-94.744
											c-8.139-92.871-13.66-157.873-16.403-190.189l-1.824-21.343c-22.404-254.647-146.526-592.425-213.211-773.894
											c-7.217-19.637-13.667-37.193-19.122-52.306c-93.748-259.778-160.186-541.308-197.467-836.764l-5.512,0.694
											c37.333,295.864,103.868,577.792,197.758,837.954c5.456,15.122,11.91,32.687,19.132,52.336
											c66.595,181.227,190.554,518.554,212.891,772.466l1.822,21.327c2.744,32.319,8.265,97.329,16.406,190.206
											c2.662,30.367,5.672,61.758,8.841,94.788c5.648,58.913,12.051,125.681,17.715,200.427l2.65,35.32
											C1662.803,2682.215,1669.983,2778.482,1684.397,2872.577z"/>
										<path style="fill:#FCFDFE;" d="M1646.734,2401.481l5.498-0.751c-22.807-167.578-117.107-355.227-272.71-542.66
											c-129.601-156.117-298.182-306.469-462.519-412.505l-3.009,4.662C1232.521,1655.756,1597.684,2041.103,1646.734,2401.481z
											"/>
										<path style="fill:#FCFDFE;" d="M1407.08,1304.809l4.569-3.151c-83.054-120.338-181.804-230.877-277.306-337.778
											c-65.357-73.158-132.939-148.807-194.937-226.974l-4.35,3.452c62.1,78.292,129.738,154.006,195.146,227.221
											C1225.59,1074.353,1324.224,1184.758,1407.08,1304.809z"/>
										<path style="fill:#FCFDFE;" d="M1558.193,1752.823c8.212-203.109,111.306-471.333,220.62-573.999l-3.8-4.049
											c-110.199,103.493-214.105,373.504-222.364,577.824L1558.193,1752.823z"/>
									</g>
								</g>
							</g>
						</g>
						<g>
							<path style="fill:#D8DEE8;" d="M2254.88,1880.629c15.735,292.035-159.898,273.871-385.135,260.483
								c103.474,251.965,194.95,501.113,286.906,754.281c150.879,6.723,259.075,8.729,296.233-170.823
								c42.025-203.07,59.544-321.653,264.626-422.137c205.082-100.483,327.955-302.221,201.412-492.267
								c-133.168-199.992-17.365-535.264-242.947-647.569C2282.911,966.909,2238.496,1576.532,2254.88,1880.629z"/>
							<g>
								<defs>
									<path id="SVGID_00000182508369943334431020000003002222504910653864_" d="M2254.88,1880.629
										c15.735,292.035-159.898,273.871-385.135,260.483c103.474,251.965,194.95,501.113,286.906,754.281
										c150.879,6.723,259.075,8.729,296.233-170.823c42.025-203.07,59.544-321.653,264.626-422.137
										c205.082-100.483,327.955-302.221,201.412-492.267c-133.168-199.992-17.365-535.264-242.947-647.569
										C2282.911,966.909,2238.496,1576.532,2254.88,1880.629z"/>
								</defs>
								<use xlink:href="#SVGID_00000182508369943334431020000003002222504910653864_"  style="overflow:visible;fill:#D8DEE8;"/>
								<clipPath id="SVGID_00000122705653197218606150000007337527328052913308_">
									<use xlink:href="#SVGID_00000182508369943334431020000003002222504910653864_"  style="overflow:visible;"/>
								</clipPath>
								<g style="clip-path:url(#SVGID_00000122705653197218606150000007337527328052913308_);">
									<g>
										<path style="fill:#D8DEE8;" d="M2089.263,2557.895c187.635-160.005,339.537-298.553,444.87-501.758
											c100.817-194.485,126.006-382.332,84.225-628.11c-21.645-127.345-22.758-221.036-21.984-349.436l-5.179-0.033
											c-0.774,128.678,0.342,222.577,22.06,350.334c41.575,244.583,16.538,431.459-83.717,624.864
											c-104.903,202.371-256.436,340.566-443.636,500.202L2089.263,2557.895z"/>
										<path style="fill:#D8DEE8;" d="M2450.204,2831.678l3.058-4.175c-65.507-47.93-131.896-83.486-202.964-108.695
											c-36.366-12.896-71.733-18.851-113.651-23.822l-0.607,5.143c41.571,4.93,76.615,10.822,112.528,23.56
											C2319.152,2748.725,2385.109,2784.05,2450.204,2831.678z"/>
										<path style="fill:#D8DEE8;" d="M2462.748,2176.124c141.453-121.083,337.734-192.497,552.682-201.079l-0.205-5.173
											c-216.109,8.63-413.511,80.481-555.844,202.32L2462.748,2176.124z"/>
										<path style="fill:#D8DEE8;" d="M2631.232,1697.666l5.127-0.703c-3.77-27.464-111.864-268.705-144.903-341.989
											c-68.365-151.635-143.963-313.988-152.142-323.203l-3.872,3.438c6.797,7.661,76.082,155.068,151.295,321.893
											C2554.674,1507.791,2628.309,1676.391,2631.232,1697.666z"/>
									</g>
								</g>
							</g>
						</g>
					</g>
				</g>
			</g>
			<g>
				<defs>
					
						<rect id="SVGID_00000165929729075490724600000012195849926031583640_" x="448.56" y="1551.225" width="1892.225" height="1550.719"/>
				</defs>
				<clipPath id="SVGID_00000055683778958858207260000017096859582565975685_">
					<use xlink:href="#SVGID_00000165929729075490724600000012195849926031583640_"  style="overflow:visible;"/>
				</clipPath>
				<g style="clip-path:url(#SVGID_00000055683778958858207260000017096859582565975685_);">
					<g>
						<g>
							<defs>
								<path id="SVGID_00000111902094156544176420000009119171673623589306_" d="M2017.447,3761.879
									c111.182-55.918,221.453-114.014,330.721-174.245c2.393,0.739-34.485-222.75-193.841-289.703
									c-313.539-127.973-222.032-376.665-216.939-506.392c15.17-185.666-84.65-344.996-281.368-277.279
									c-219.445,71.577-365.48-212.744-423.143-498.361c-16.888-143.325-224.761-249.974-388.029-232.8
									c-167.816,14.337-291.025,152.495-243.582,433.235c38.241,331.044,372.684,418.922,526.892,536.43
									c151.609,115.273-32.553,318.662,198.304,386.155c196.44,63.089,421.107,78.49,403.203,252.725
									C1709.211,3564.893,1769.654,3678.841,2017.447,3761.879z"/>
							</defs>
							
								<linearGradient id="SVGID_00000009550726690002732150000000465927813309066369_" gradientUnits="userSpaceOnUse" x1="1717.8606" y1="2099.6851" x2="1236.7886" y2="3466.9438">
								<stop  offset="0.0036" style="stop-color:#E38DDD"/>
								<stop  offset="1" style="stop-color:#9571F6"/>
							</linearGradient>
							
								<use xlink:href="#SVGID_00000111902094156544176420000009119171673623589306_"  style="overflow:visible;fill:url(#SVGID_00000009550726690002732150000000465927813309066369_);"/>
							<clipPath id="SVGID_00000103967533400549542810000009849118089813183392_">
								<use xlink:href="#SVGID_00000111902094156544176420000009119171673623589306_"  style="overflow:visible;"/>
							</clipPath>
							<g style="clip-path:url(#SVGID_00000103967533400549542810000009849118089813183392_);">
								<path style="fill:#BEB8F2;" d="M2183.209,3716.393c-0.633-1.876-269.484-403.531-614.76-764.569
									c-51.287-60.038-105.107-119.884-157.15-177.761c-289.845-322.308-563.615-626.743-547.86-1080.187l-7.297,0.565
									c-15.825,455.558,258.63,760.754,549.201,1083.872c52.022,57.85,105.818,117.67,157.163,177.771
									c347.14,362.994,612.446,760.366,613.764,762.958L2183.209,3716.393z"/>
								<path style="fill:#BEB8F2;" d="M1145.234,2474.473l3.81-5.755c-172.282-73.026-389.353-186.8-505.971-247.921
									c-94.383-49.467-94.672-49.335-98.068-47.581l1.564,2.677l-0.733,3.096c4.528,0.993,43.546,21.442,92.94,47.331
									C755.474,2287.485,972.696,2401.339,1145.234,2474.473z"/>
								<path style="fill:#BEB8F2;" d="M1049.256,2323.362c-22.047-145.917,13.342-259.933,46.913-329.885
									c36.568-76.199,80.683-121.037,86.899-124.37l-1.273-2.047l1.366-3.916c-2.09-0.346-3.933,0.786-6.608,2.994
									c-38.282,31.63-173.309,202.186-134.539,458.77L1049.256,2323.362z"/>
								<path style="fill:#BEB8F2;" d="M1776.122,3194.852l6.707-3.182c-136.579-258.708-4.43-593.252,58.729-725.079
									c3.393-7.081,4.48-9.375,4.782-10.479l-7.097-0.739l3.549,0.369l-3.541-0.391c-0.243,0.782-2.167,4.79-4.388,9.43
									c-45.548,95.072-78.669,189.713-98.444,281.294C1698.432,2922.003,1711.79,3072.992,1776.122,3194.852z"/>
								<path style="fill:#BEB8F2;" d="M1175.677,3036.972l-1.264-2.773l-0.132,3.126l-3.413-1.992l1.633-3.653
									c0.008-0.007,0.023-0.014,0.041-0.023c4.609-2.149,302.49-93.834,508.384,42.91l-4.858,5.194
									C1472.231,2944.382,1178.44,3035.911,1175.677,3036.972z M1174.414,3034.165l0.132-3.147L1174.414,3034.165z"/>
								<path style="fill:#BEB8F2;" d="M2138.026,3651.222c-22.231-54.464-32.095-157.402,47.124-338.504
									c4.497-10.277,4.497-10.277,3.7-11.683l-6.629,3.318l3.315-1.658l-3.584-0.067c-0.202,0.739-1.773,4.33-3.589,8.487
									c-80.031,182.954-69.874,287.415-47.257,342.831L2138.026,3651.222z"/>
								<path style="fill:#BEB8F2;" d="M2064.349,3560.198l6.142-4.03c-69.746-86.364-261.485-99.023-369.568-98.882
									c-3.428,0.004-5.632,0.012-6.438-0.036l-1.35,6.316c0.864,0.052,3.239,0.053,6.93,0.049
									C1806.869,3463.479,1996.219,3475.842,2064.349,3560.198z"/>
							</g>
						</g>
					</g>
				</g>
			</g>
		</g>
		<g>
			
				<linearGradient id="SVGID_00000116916292233388787380000008509966744890659007_" gradientUnits="userSpaceOnUse" x1="2613.4766" y1="2799.2439" x2="1584.7029" y2="1921.6526">
				<stop  offset="0" style="stop-color:#444B8C"/>
				<stop  offset="0.9964" style="stop-color:#26264F"/>
			</linearGradient>
			<path style="fill:url(#SVGID_00000116916292233388787380000008509966744890659007_);" d="M2378.72,967.019v2135.168
				c0,31.93-27.302,39.706-58.288,41.745l-1079.246,91.501l-16.611,1.098c-34.111,2.255-62.091-23.407-62.091-57.032V930.99
				c0-33.625,27.981-60.236,62.091-59.14l22.541,0.725l1082.953,82.808C2361.045,956.358,2378.72,935.089,2378.72,967.019z"/>
			
				<linearGradient id="SVGID_00000157289947799652434900000014903972422691527084_" gradientUnits="userSpaceOnUse" x1="-1389.0087" y1="3152.0637" x2="2438.9084" y2="3294.4587" gradientTransform="matrix(0 -1 1 0 -1389.0323 1734.3226)">
				<stop  offset="0" style="stop-color:#444B8C"/>
				<stop  offset="0.9964" style="stop-color:#26264F"/>
			</linearGradient>
			<path style="fill:url(#SVGID_00000157289947799652434900000014903972422691527084_);" d="M2411.749,966.973v2134.139
				c0,31.915-25.264,59.697-56.218,61.743l-1096.806,72.516c-34.077,2.253-62.031-23.397-62.031-57.005V930.961
				c0-33.608,27.953-60.207,62.031-59.111l1096.806,35.287C2386.485,908.133,2411.749,935.058,2411.749,966.973z"/>
			
				<linearGradient id="SVGID_00000072975770917226053010000008583850814314065318_" gradientUnits="userSpaceOnUse" x1="1860.2891" y1="868.7673" x2="1654.5911" y2="5406.9775">
				<stop  offset="0" style="stop-color:#AA80F9"/>
				<stop  offset="0.9964" style="stop-color:#6165D7"/>
			</linearGradient>
			<path style="fill:url(#SVGID_00000072975770917226053010000008583850814314065318_);" d="M2377.298,1084.411V3062.42
				c0,29.8-23.858,55.716-52.79,57.581l-1031.405,66.162c-31.694,2.017-57.759-21.934-57.759-53.228V1056.467
				c0-20.755,11.373-38.705,28.324-48.183c8.62-4.834,18.625-7.453,29.295-7.184l1031.548,27.687
				C2353.442,1029.573,2377.298,1054.579,2377.298,1084.411z"/>
			<path style="fill:#DE8BDF;" d="M1840.282,956.604c0,11.339-9.109,20.272-20.355,19.952c-11.257-0.321-20.391-9.789-20.391-21.148
				c0-11.359,9.134-20.291,20.391-19.951C1831.173,935.797,1840.282,945.264,1840.282,956.604z"/>
			
				<linearGradient id="SVGID_00000122001400335333080380000009579611335635883667_" gradientUnits="userSpaceOnUse" x1="1858.9624" y1="898.0355" x2="1655.8387" y2="5379.4502">
				<stop  offset="0" style="stop-color:#AA80F9"/>
				<stop  offset="0.9964" style="stop-color:#6165D7"/>
			</linearGradient>
			<path style="opacity:0.3;fill:url(#SVGID_00000122001400335333080380000009579611335635883667_);" d="M2377.298,2911.141v151.28
				c0,29.8-23.858,55.716-52.79,57.581l-1031.405,66.162c-31.694,2.017-57.759-21.934-57.759-53.228V1056.467
				c0-20.755,11.373-38.705,28.324-48.183c85.253,28.06,334.013,161.774,353.93,772.909
				C1637.147,2379.846,2247.202,2512.815,2377.298,2911.141z"/>
		</g>
		<g>
			<g>
				
					<linearGradient id="SVGID_00000060736648621383895130000010724639848053095040_" gradientUnits="userSpaceOnUse" x1="1906.4011" y1="1607.5895" x2="4212.187" y2="-1353.7578">
					<stop  offset="0" style="stop-color:#AB316D"/>
					<stop  offset="1" style="stop-color:#792D3D"/>
				</linearGradient>
				<path style="fill:url(#SVGID_00000060736648621383895130000010724639848053095040_);" d="M2734.259,604.303l-534.032-32.741
					c-39.21-2.022-71.144,28.636-71.144,68.485v498.886c0,39.85,31.934,72.456,71.144,72.826l29.713,0.279v122.855
					c0,18.412,21.825,27.4,39.844,7.036l111.714-128.462l352.761,1.071c32.992,0.311,59.625-28.879,59.625-65.197V673.136
					C2793.884,636.819,2767.251,606.004,2734.259,604.303z"/>
				
					<linearGradient id="SVGID_00000177483347496725793350000004124899633335747246_" gradientUnits="userSpaceOnUse" x1="2125.0671" y1="1335.484" x2="2542.728" y2="799.0774">
					<stop  offset="0" style="stop-color:#FCB148"/>
					<stop  offset="0.0521" style="stop-color:#FDBA46"/>
					<stop  offset="0.1424" style="stop-color:#FFC244"/>
					<stop  offset="0.3183" style="stop-color:#FFC444"/>
					<stop  offset="0.4849" style="stop-color:#FDB946"/>
					<stop  offset="0.7754" style="stop-color:#F99C4D"/>
					<stop  offset="0.8658" style="stop-color:#F8924F"/>
					<stop  offset="1" style="stop-color:#F8924F"/>
				</linearGradient>
				<path style="fill:url(#SVGID_00000177483347496725793350000004124899633335747246_);" d="M2751.188,1201.529l-534.033-2.78
					c-39.21-0.37-71.146-32.975-71.146-72.825V627.038c0-39.85,31.935-70.508,71.146-68.486l534.033,32.74
					c32.992,1.702,59.623,32.516,59.623,68.834v476.205C2810.811,1172.65,2784.18,1201.84,2751.188,1201.529z"/>
				
					<linearGradient id="SVGID_00000084487730191433738480000007175197500401774514_" gradientUnits="userSpaceOnUse" x1="2580.5286" y1="1148.7356" x2="2310.1643" y2="461.0703">
					<stop  offset="0" style="stop-color:#FCB148"/>
					<stop  offset="0.0521" style="stop-color:#FDBA46"/>
					<stop  offset="0.1424" style="stop-color:#FFC244"/>
					<stop  offset="0.3183" style="stop-color:#FFC444"/>
					<stop  offset="0.4849" style="stop-color:#FDB946"/>
					<stop  offset="0.7754" style="stop-color:#F99C4D"/>
					<stop  offset="0.8658" style="stop-color:#F8924F"/>
					<stop  offset="1" style="stop-color:#F8924F"/>
				</linearGradient>
				<path style="fill:url(#SVGID_00000084487730191433738480000007175197500401774514_);" d="M2166.336,1139.349V614.851
					c0-21.208,16.99-37.546,37.895-36.496l557.866,32.292c17.573,0.882,31.787,17.304,31.787,36.682v500.766
					c0,19.378-14.214,34.934-31.788,34.745l-557.863-4.682C2183.326,1177.933,2166.336,1160.557,2166.336,1139.349z"/>
				
					<linearGradient id="SVGID_00000145018046374920259810000004128107943936912266_" gradientUnits="userSpaceOnUse" x1="2161.2332" y1="1395.8662" x2="2746.6082" y2="644.0624">
					<stop  offset="0" style="stop-color:#FCB148"/>
					<stop  offset="0.0521" style="stop-color:#FDBA46"/>
					<stop  offset="0.1424" style="stop-color:#FFC244"/>
					<stop  offset="0.3183" style="stop-color:#FFC444"/>
					<stop  offset="0.4849" style="stop-color:#FDB946"/>
					<stop  offset="0.7754" style="stop-color:#F99C4D"/>
					<stop  offset="0.8658" style="stop-color:#F8924F"/>
					<stop  offset="1" style="stop-color:#F8924F"/>
				</linearGradient>
				<path style="fill:url(#SVGID_00000145018046374920259810000004128107943936912266_);" d="M2246.865,1321.884v-148.126
					l173.119,1.92l-138.773,159.487C2269.242,1348.922,2246.865,1340.296,2246.865,1321.884z"/>
			</g>
			<g>
				<g>
					<path style="fill:#FFFFFF;" d="M2389.099,886.748c0,22.261-18.73,39.89-41.916,39.374
						c-23.275-0.517-42.208-19.11-42.208-41.526c0-22.415,18.934-40.04,42.208-39.367
						C2370.368,845.9,2389.099,864.487,2389.099,886.748z"/>
					<path style="fill:#FFFFFF;" d="M2530.269,890.359c0,22-18.295,39.429-40.94,38.925c-22.731-0.505-41.222-18.874-41.222-41.026
						c0-22.152,18.491-39.575,41.222-38.918C2511.974,849.994,2530.269,868.358,2530.269,890.359z"/>
					<path style="fill:#FFFFFF;" d="M2668.177,893.886c0,21.746-17.875,38.977-39.998,38.485
						c-22.207-0.494-40.27-18.644-40.27-40.538c0-21.894,18.063-39.121,40.27-38.479
						C2650.303,853.994,2668.177,872.139,2668.177,893.886z"/>
				</g>
			</g>
		</g>
		<g>
			<g>
				
					<linearGradient id="SVGID_00000094617671045033755060000005561388036214642572_" gradientUnits="userSpaceOnUse" x1="2152.95" y1="11170.1895" x2="1731.5128" y2="11567.5908" gradientTransform="matrix(-1 0 0 -1 99.9479 18234.4336)">
					<stop  offset="0" style="stop-color:#311944"/>
					<stop  offset="1" style="stop-color:#893976"/>
				</linearGradient>
				<path style="fill:url(#SVGID_00000094617671045033755060000005561388036214642572_);" d="M2513.437,2577.56
					c0-105.493,92.023-191,202.455-190.987c107.167,0.012,191.745,81.018,191.745,180.929c0,99.912-84.578,185.232-191.745,190.714
					C2605.46,2763.865,2513.437,2683.052,2513.437,2577.56z"/>
			</g>
			<g>
				
					<linearGradient id="SVGID_00000039135753318561447990000015392856193650863527_" gradientUnits="userSpaceOnUse" x1="2588.6531" y1="2680.2244" x2="2926.3647" y2="2373.76">
					<stop  offset="0" style="stop-color:#FF9085"/>
					<stop  offset="1" style="stop-color:#FB6FBB"/>
				</linearGradient>
				<path style="fill:url(#SVGID_00000039135753318561447990000015392856193650863527_);" d="M2525.342,2569.147
					c0-105.493,89.361-191,196.598-190.987c104.066,0.013,186.198,81.018,186.198,180.93c0,99.912-82.131,185.232-186.198,190.714
					C2614.703,2755.452,2525.342,2674.64,2525.342,2569.147z"/>
			</g>
			<g style="opacity:0.5;">
				<path style="fill:#FFFFFF;" d="M2555.936,2568.344c0-88.63,75.077-160.47,165.173-160.459
					c87.432,0.011,156.435,68.068,156.435,152.009s-69.003,155.624-156.435,160.229
					C2631.012,2724.869,2555.936,2656.974,2555.936,2568.344z"/>
			</g>
			<path style="opacity:0.5;fill:#FFFFFF;" d="M2714.906,2421.505c87.432,0.012,156.435,68.067,156.435,152.009
				c0,19.962-3.942,39.209-11.064,57.047c11.032-21.478,17.267-45.512,17.267-70.666c0-83.942-69.003-152-156.435-152.011
				c-69.487-0.007-130.001,42.742-154.068,102.952C2594.295,2457.903,2650.782,2421.498,2714.906,2421.505z"/>
			<g>
				<path style="fill:#FFFFFF;" d="M2629.976,2641.078c-5.434,0-10.495-2.01-14.324-5.704c-3.85-3.713-5.969-8.699-5.969-14.037
					v-109.128c0-11.119,9.318-20.321,20.771-20.511l180.459-3.004c5.454-0.019,10.517,1.932,14.339,5.69
					c3.761,3.699,5.833,8.645,5.833,13.924v105.931c0,10.826-8.906,19.955-19.856,20.347l-180.46,6.479
					C2630.504,2641.073,2630.239,2641.078,2629.976,2641.078z M2811.112,2500.712l-180.459,3.005
					c-4.936,0.082-8.953,3.892-8.953,8.493v109.128c0,2.047,0.816,3.96,2.296,5.387c1.647,1.592,3.9,2.399,6.342,2.331
					l180.458-6.478c4.56-0.164,8.27-3.904,8.27-8.338v-105.931c0-2.033-0.796-3.934-2.241-5.356
					C2815.318,2501.472,2813.348,2500.658,2811.112,2500.712L2811.112,2500.712z"/>
				<path style="fill:#FFFFFF;" d="M2721.445,2573.537c-5.431,0-10.838-1.807-15.288-5.446l-80.379-65.718
					c-2.569-2.101-2.949-5.887-0.848-8.455c2.101-2.57,5.888-2.95,8.456-0.85l80.378,65.717c4.666,3.819,11.465,3.604,16.165-0.502
					l78.057-68.124c2.503-2.178,6.297-1.92,8.479,0.578c2.182,2.5,1.924,6.295-0.576,8.478l-78.057,68.123
					C2733.107,2571.462,2727.262,2573.537,2721.445,2573.537z"/>
			</g>
		</g>
		<g>
			<g>
				
					<linearGradient id="SVGID_00000134244636486521595720000016942676170895102880_" gradientUnits="userSpaceOnUse" x1="1867.4187" y1="459.2473" x2="1238.6656" y2="1052.1396">
					<stop  offset="0" style="stop-color:#311944"/>
					<stop  offset="1" style="stop-color:#893976"/>
				</linearGradient>
				<path style="fill:url(#SVGID_00000134244636486521595720000016942676170895102880_);" d="M1810.312,512.595
					c55.821,57.189,55.821,147.323,0,202.423c-56.436,55.707-149.271,55.394-207.368-1.832c-58.75-57.868-58.75-150.849,0-206.519
					C1661.041,451.616,1753.875,454.776,1810.312,512.595z"/>
			</g>
			<g>
				
					<linearGradient id="SVGID_00000168112190481116216470000013274250545507125898_" gradientUnits="userSpaceOnUse" x1="1635.3256" y1="475.2288" x2="1836.7751" y2="786.9457">
					<stop  offset="0" style="stop-color:#FF9085"/>
					<stop  offset="1" style="stop-color:#FB6FBB"/>
				</linearGradient>
				<path style="fill:url(#SVGID_00000168112190481116216470000013274250545507125898_);" d="M1820.449,500.359
					c55.822,57.189,55.822,147.323,0,202.423c-56.436,55.707-149.27,55.393-207.368-1.832c-58.751-57.868-58.751-150.85,0-206.519
					C1671.179,439.38,1764.013,442.54,1820.449,500.359z"/>
			</g>
			<g style="opacity:0.5;">
				<path style="fill:#FFFFFF;" d="M1800.115,519.62c44.989,46.091,44.989,118.733,0,163.14
					c-45.484,44.896-120.303,44.644-167.125-1.476c-47.349-46.638-47.349-121.576,0-166.442
					C1679.813,470.474,1754.631,473.021,1800.115,519.62z"/>
			</g>
			<path style="opacity:0.5;fill:#FFFFFF;" d="M1800.115,519.621c-45.484-46.601-120.303-49.147-167.125-4.78
				c-0.436,0.413-0.839,0.848-1.266,1.264c46.552-30.464,110.361-23.95,150.892,17.573c44.989,46.089,44.989,118.731,0,163.14
				c-0.128,0.126-0.264,0.242-0.392,0.368c6.331-4.136,12.332-8.941,17.891-14.425
				C1845.103,638.352,1845.103,565.71,1800.115,519.621z"/>
			<g>
				<polygon style="fill:#FFFFFF;" points="1765.329,666.247 1787.116,666.515 1787.116,546.727 1765.329,546.205 				"/>
				<polygon style="fill:#FFFFFF;" points="1726.367,665.766 1748.319,666.036 1748.319,605.917 1726.367,605.518 				"/>
				<polygon style="fill:#FFFFFF;" points="1687.109,665.282 1709.228,665.555 1709.228,533.424 1687.109,532.869 				"/>
				<polygon style="fill:#FFFFFF;" points="1647.552,664.794 1669.839,665.069 1669.839,552.11 1647.552,551.594 				"/>
			</g>
		</g>
		<g>
			<g>
				<g>
					
						<linearGradient id="SVGID_00000125594639747130062540000002434562048019364737_" gradientUnits="userSpaceOnUse" x1="3041.9656" y1="11065.5898" x2="2530.0044" y2="11548.3516" gradientTransform="matrix(-1 0 0 -1 99.9479 18234.4336)">
						<stop  offset="0" style="stop-color:#444B8C"/>
						<stop  offset="0.9964" style="stop-color:#26264F"/>
					</linearGradient>
					<path style="fill:url(#SVGID_00000125594639747130062540000002434562048019364737_);" d="M2605.284,1718.429
						c0-128.153,111.789-232.027,245.941-232.01c130.186,0.015,232.931,98.42,232.931,219.793
						c0,121.373-102.745,225.02-232.931,231.678C2717.073,1944.752,2605.284,1846.581,2605.284,1718.429z"/>
				</g>
				<g>
					
						<linearGradient id="SVGID_00000033359998758194462900000015863892513356419757_" gradientUnits="userSpaceOnUse" x1="2696.6558" y1="1843.1459" x2="3106.9075" y2="1470.8535">
						<stop  offset="0" style="stop-color:#AA80F9"/>
						<stop  offset="0.9964" style="stop-color:#6165D7"/>
					</linearGradient>
					<path style="fill:url(#SVGID_00000033359998758194462900000015863892513356419757_);" d="M2619.746,1708.209
						c0-128.152,108.555-232.027,238.826-232.01c126.419,0.015,226.192,98.42,226.192,219.793
						c0,121.373-99.773,225.02-226.192,231.679C2728.301,1934.532,2619.746,1836.362,2619.746,1708.209z"/>
				</g>
				<g style="opacity:0.5;">
					<path style="fill:#FFFFFF;" d="M2656.911,1707.234c0-107.668,91.203-194.939,200.652-194.925
						c106.212,0.014,190.037,82.689,190.037,184.661c0,101.972-83.824,189.052-190.037,194.646
						C2748.114,1897.38,2656.911,1814.901,2656.911,1707.234z"/>
				</g>
				<path style="opacity:0.5;fill:#FFFFFF;" d="M2850.027,1528.854c106.212,0.014,190.037,82.688,190.037,184.66
					c0,24.249-4.788,47.632-13.441,69.3c13.402-26.091,20.976-55.288,20.976-85.844c0-101.972-83.824-184.649-190.037-184.663
					c-84.413-0.008-157.926,51.923-187.162,125.066C2703.51,1573.07,2772.13,1528.846,2850.027,1528.854z"/>
			</g>
			<g>
				<path style="fill:#FFFFFF;" d="M2823.709,1747.885v-13.673c0-11.825,2.525-22.111,7.575-30.856
					c5.05-8.746,14.289-18.046,27.715-27.9c12.934-9.238,21.464-16.752,25.591-22.542s6.19-12.256,6.19-19.401
					c0-8.007-2.956-14.104-8.869-18.292c-5.913-4.188-14.166-6.282-24.759-6.282c-18.477,0-39.54,6.036-63.191,18.107l-20.14-40.464
					c27.469-15.397,56.601-23.096,87.395-23.096c25.375,0,45.545,6.097,60.512,18.292c14.966,12.195,22.449,28.454,22.449,48.779
					c0,13.55-3.08,25.252-9.239,35.106c-6.159,9.854-17.861,20.94-35.106,33.258c-11.825,8.746-19.308,15.397-22.449,19.955
					c-3.141,4.557-4.712,10.532-4.712,17.922v11.086H2823.709z M2817.797,1811.076c0-10.347,2.771-18.169,8.314-23.465
					c5.543-5.297,13.611-7.945,24.205-7.945c10.224,0,18.138,2.71,23.743,8.13c5.605,5.42,8.407,13.18,8.407,23.281
					c0,9.731-2.833,17.399-8.499,23.004c-5.666,5.604-13.55,8.407-23.65,8.407c-10.347,0-18.354-2.741-24.02-8.222
					S2817.797,1821.054,2817.797,1811.076z"/>
			</g>
		</g>
		<g>
			
				<linearGradient id="SVGID_00000112601790180728804970000009176892326499093671_" gradientUnits="userSpaceOnUse" x1="1351.1128" y1="1809.9517" x2="2319.8762" y2="1809.9517">
				<stop  offset="0" style="stop-color:#444B8C"/>
				<stop  offset="0.9964" style="stop-color:#26264F"/>
			</linearGradient>
			<path style="opacity:0.3;fill:url(#SVGID_00000112601790180728804970000009176892326499093671_);" d="M2290.986,1706.118
				L2290.986,1706.118c-6.233-0.012-12.074,3.295-16.785,8.865c-0.002-0.005-0.047-0.009-0.049-0.013
				c-52.235-146.758-224.276-255.935-430.734-257.874c-41.999-0.394-82.779,3.661-121.565,11.661
				c-0.04,0.008-0.081,0.017-0.121,0.025c-0.002-0.008-0.006-0.017-0.008-0.026c-154.262,31.672-277.095,125.039-320.923,244.874
				c-4.973-5.749-11.742-9.144-18.317-9.156c-16.806-0.03-31.371,21.874-31.371,48.907v142.207c0,27.07,13.911,48.888,30.719,48.797
				c0.098,0,0.414-0.028,0.512-0.03c0.123,0.001,0.353,0.028,0.474,0.028c10.03-0.054,19.466-7.937,24.968-20.014
				c61.774,141.102,234.46,240.869,435.584,238.422c56.298-0.685,110.067-9.339,159.476-24.561
				c124.975-38.357,222.597-118.629,264.813-218.003c0.004-0.009,0.011-0.018,0.014-0.026c5.24,11.723,13.816,19.333,23.312,19.281
				l0,0c15.865-0.086,28.892-21.438,28.892-47.692v-138.082C2319.876,1727.453,2306.851,1706.147,2290.986,1706.118z"/>
			
				<linearGradient id="SVGID_00000096766557009348185670000014964336093770177700_" gradientUnits="userSpaceOnUse" x1="1514.9677" y1="2520.9849" x2="2165.3611" y2="2520.9849">
				<stop  offset="0" style="stop-color:#444B8C"/>
				<stop  offset="0.9964" style="stop-color:#26264F"/>
			</linearGradient>
			<path style="opacity:0.3;fill:url(#SVGID_00000096766557009348185670000014964336093770177700_);" d="M1976.891,2215.11
				l-268.086,3.705c-34.242,0.473-67.431,10.14-96.413,27.434c-22.917,13.604-43.234,31.989-59.437,54.342
				c-36.716,50.681-47.577,115.566-29.253,174.672c0.377,1.204,0.754,2.446,1.13,3.65l7.007,22.569
				c14.192,45.636,28.336,91.195,42.467,136.753c36.063,116.157,142.808,192.406,263.252,188.499
				c38.032-1.234,74.656-9.945,108.256-24.863c77.967-34.634,139.765-102.702,165.595-188.678
				c12.575-41.869,25.174-83.67,37.727-125.474l6.747-22.442c0.361-1.197,0.724-2.43,1.087-3.627
				c17.609-58.638,7.177-121.873-28.193-170.403C2093.33,2242.574,2037.005,2214.28,1976.891,2215.11z"/>
		</g>
		<g>
			<g>
				<path style="fill:#FFFFFF;" d="M2298.411,1786.964c0,37.87-7.84,74.323-22.335,108.438
					c-41.271,97.149-136.701,175.624-258.878,213.122c-48.302,14.881-100.854,23.342-155.891,24.011
					c-196.621,2.392-365.413-95.142-425.805-233.084c-15.291-34.909-23.574-72.325-23.574-111.258
					c0-32.836,5.907-64.626,16.932-94.761c42.845-117.152,162.806-208.428,313.613-239.391
					c37.919-7.821,77.775-11.785,118.834-11.399c201.834,1.895,370.003,108.628,421.069,252.1
					C2292.82,1724.096,2298.411,1755.025,2298.411,1786.964z"/>
				<path style="fill:#D8DEE8;" d="M2066.39,1972.243l-398.613,2.871c-81.639,0.588-148.125-65.842-148.125-148.378v-87.268
					c0-37.288,30.071-67.449,67.088-67.368l558.3,1.23c35.667,0.079,64.522,29.725,64.522,66.218v85.406
					C2209.562,1905.73,2145.621,1971.673,2066.39,1972.243z"/>
				<path style="fill:#D8DEE8;" d="M1889.682,2046.283l-56.801,0.538c-78.758,0.746-142.889-63.522-142.889-143.55v0
					c0-80.028,64.131-144.935,142.889-144.972l56.801-0.027c78.095-0.037,141.125,64.122,141.125,143.303v0
					C2030.806,1980.757,1967.777,2045.543,1889.682,2046.283z"/>
				
					<linearGradient id="SVGID_00000172400141613807044830000008340827649676573361_" gradientUnits="userSpaceOnUse" x1="1547.1376" y1="1801.2939" x2="2178.8911" y2="1801.2939">
					<stop  offset="0" style="stop-color:#444B8C"/>
					<stop  offset="0.9964" style="stop-color:#26264F"/>
				</linearGradient>
				<path style="fill:url(#SVGID_00000172400141613807044830000008340827649676573361_);" d="M2077.023,1904.989l-424.599,2.161
					c-58.063,0.296-105.287-47-105.287-105.638v-38.716c0-37.256,30.02-67.414,66.974-67.359l500.132,0.741
					c35.736,0.053,64.647,29.708,64.647,66.236v37.959C2178.891,1857.865,2133.364,1904.703,2077.023,1904.989z"/>
				<path style="fill:#D8DEE8;" d="M1777.549,1813.294c4.057-5.873,6.569-12.472,6.569-19.591c0-23.044-24.133-41.719-53.953-41.71
					c-29.875,0.008-54.134,18.759-54.134,41.88c0,7.143,2.529,13.754,6.611,19.628L1777.549,1813.294z"/>
				<path style="fill:#D8DEE8;" d="M2046.67,1812.706c3.989-5.824,6.466-12.367,6.466-19.427c0-22.851-23.73-41.369-53.057-41.361
					c-29.375,0.008-53.228,18.601-53.228,41.528c0,7.083,2.487,13.639,6.5,19.463L2046.67,1812.706z"/>
				
					<linearGradient id="SVGID_00000041296461804436550620000014705354747591153849_" gradientUnits="userSpaceOnUse" x1="1382.4756" y1="1801.749" x2="1438.2318" y2="1801.749">
					<stop  offset="0" style="stop-color:#444B8C"/>
					<stop  offset="0.9964" style="stop-color:#26264F"/>
				</linearGradient>
				<path style="fill:url(#SVGID_00000041296461804436550620000014705354747591153849_);" d="M1438.232,1732.314v138.769
					c0,10.588-0.624,20.403-4.259,28.371c-5.379,11.807-13.004,19.511-22.81,19.564c-16.43,0.089-28.688-21.241-28.688-47.705
					v-139.023c0-26.428,13.023-47.841,29.452-47.812c6.428,0.012,12.218,3.331,17.081,8.951c1.335,1.526,0.996,3.238,2.146,5.098
					C1436.533,1707.193,1438.232,1719.124,1438.232,1732.314z"/>
				
					<linearGradient id="SVGID_00000086655436254598269880000010611396653522563464_" gradientUnits="userSpaceOnUse" x1="2270.5789" y1="1800.1564" x2="2326.7776" y2="1800.1564">
					<stop  offset="0" style="stop-color:#444B8C"/>
					<stop  offset="0.9964" style="stop-color:#26264F"/>
				</linearGradient>
				<path style="fill:url(#SVGID_00000086655436254598269880000010611396653522563464_);" d="M2298.703,1914.225L2298.703,1914.225
					c-15.527,0.084-28.125-20.691-28.125-46.403v-135.232c0-25.711,12.598-46.532,28.125-46.504l0,0
					c15.511,0.028,28.074,20.857,28.074,46.523v134.991C2326.778,1893.267,2314.215,1914.141,2298.703,1914.225z"/>
			</g>
			<path style="fill:#FFFFFF;" d="M2167.857,2424.704c-0.355,1.17-0.709,2.376-1.063,3.546l-6.595,21.94
				c-12.273,40.868-24.59,81.733-36.882,122.665c-25.254,84.052-85.668,150.595-161.889,184.454
				c-32.848,14.583-68.651,23.1-105.833,24.306c-117.747,3.819-222.103-70.723-257.356-184.279
				c-13.816-44.538-27.643-89.077-41.516-133.691l-6.851-22.064c-0.367-1.177-0.736-2.391-1.104-3.568
				c-17.914-57.783-7.296-121.215,28.598-170.761c15.842-21.853,35.703-39.827,58.107-53.125
				c28.334-16.907,60.78-26.358,94.255-26.821l262.083-3.622c58.769-0.812,113.833,26.849,148.485,74.432
				C2174.873,2305.559,2185.073,2367.378,2167.857,2424.704z"/>
			<polygon style="fill:#D8DEE8;" points="2166.795,2428.25 2160.2,2450.189 1556.724,2463.645 1549.873,2441.581 			"/>
			<path style="opacity:0.3;fill:#D8DEE8;" d="M1893.032,2046.204c39.075,25.461,81.461,46.256,124.165,62.32
				c-48.302,14.881-100.854,23.342-155.891,24.011c-196.621,2.392-365.413-95.142-425.805-233.084
				c-5.379,11.807-13.768,19.513-23.573,19.566c-16.429,0.089-29.452-21.239-29.452-47.703v-139.023
				c0-26.428,13.023-47.841,29.452-47.812c6.428,0.012,12.218,3.331,17.081,8.951c42.845-117.152,162.732-208.429,313.541-239.392
				c14.261,50.899,13.823,114.252-12.345,192.87c-2.878,8.609-5.375,17.109-7.561,25.5c-2.043,7.804-3.765,15.537-5.222,23.195
				c-3.829,20.256-5.693,39.892-5.728,58.903c-0.037,20.374,1.929,40.008,5.757,58.899c0.256,1.178,0.474,2.32,0.764,3.462
				c6.889,32.134,19.09,62.06,35.429,89.771c14.251,24.237,31.686,46.742,51.456,67.478
				C1830.965,2001.203,1860.837,2025.276,1893.032,2046.204z"/>
			<path style="opacity:0.3;fill:#D8DEE8;" d="M1961.429,2757.308c-32.848,14.583-68.651,23.1-105.833,24.306
				c-117.747,3.819-222.103-70.723-257.356-184.279c-13.816-44.538-27.643-89.077-41.516-133.691l-6.851-22.064
				c-0.367-1.177-0.736-2.391-1.104-3.568c-17.914-57.783-7.296-121.215,28.598-170.761c15.842-21.853,35.703-39.827,58.107-53.125
				c1.283,65.013-10.851,138.433,78.95,223.899c7.472,7.131,15.633,14.317,24.555,21.556c21.974,17.903,48.564,36.261,80.726,55.114
				C1973.596,2604.832,2011.758,2694.025,1961.429,2757.308z"/>
		</g>
		<g>
			<g>
				
					<linearGradient id="SVGID_00000068678674856309231060000003565179885438375330_" gradientUnits="userSpaceOnUse" x1="1786.5938" y1="3136.9634" x2="1362.7701" y2="2888.5562" gradientTransform="matrix(0.9996 0.0299 -0.0299 0.9996 -127.6115 -64.223)">
					<stop  offset="0" style="stop-color:#311944"/>
					<stop  offset="1" style="stop-color:#893976"/>
				</linearGradient>
				<path style="fill:url(#SVGID_00000068678674856309231060000003565179885438375330_);" d="M1369.91,3084.306
					c25.702,16.762,58.94,7.612,74.219-20.473c15.29-28.103,6.782-64.469-18.982-81.191c-1.333-0.866-2.699-1.619-4.068-2.348
					c5.351-15.885,9.511-32.03,12.464-48.312c1.501,0.154,3.007,0.288,4.541,0.308c29.972,0.386,54.582-25.844,54.933-58.589
					c0.35-32.743-23.693-59.535-53.664-59.841c-1.566-0.016-3.107,0.084-4.639,0.209c-2.635-16.494-6.436-32.73-11.369-48.569
					c1.398-0.7,2.79-1.429,4.154-2.271c26.114-16.119,35.396-52.271,20.714-80.711c-14.672-28.421-47.699-38.333-73.748-22.176
					c-1.334,0.828-2.593,1.74-3.838,2.668c-9.71-12.66-20.415-24.557-32.044-35.596c0.881-1.358,1.745-2.736,2.533-4.195
					c15.216-28.172,34.925-58.666,9.038-74.688c-59.767-36.993-86.556-12.941-101.711,15.191c-0.784,1.457-1.468,2.948-2.127,4.443
					c-14.424-5.701-29.069-10.1-43.827-13.183c0.142-1.631,0.263-3.266,0.281-4.933c0.351-32.517,10.035-49.193-19.597-52.674
					c-64.477-7.574-87.083,19.775-87.436,52.212c-0.019,1.696,0.067,3.364,0.176,5.023c-14.876,2.98-29.516,7.218-43.795,12.677
					c-0.626-1.509-1.277-3.011-2.03-4.483c-14.401-28.123-46.834-37.856-72.424-21.775c-25.56,16.063-34.641,51.823-20.3,79.906
					c0.734,1.44,1.546,2.798,2.371,4.141c-11.419,10.598-22.16,22.266-32.136,34.933c-1.213-0.947-2.444-1.876-3.747-2.722
					c-25.147-16.321-57.589-6.952-72.481,20.893c-14.882,27.826-6.625,63.621,18.46,79.981c1.3,0.849,2.632,1.585,3.969,2.298
					c-5.224,15.708-9.286,31.661-12.171,47.741c-1.462-0.148-2.929-0.277-4.422-0.293c-29.154-0.297-53.044,25.592-53.399,57.829
					c-0.354,32.237,22.965,58.674,52.118,59.049c1.523,0.02,3.025-0.073,4.518-0.195c2.562,16.293,6.261,32.339,11.066,48.005
					c-1.364,0.685-2.722,1.399-4.052,2.224c-25.44,15.778-34.482,51.382-20.211,79.553c14.279,28.192,63.886,46.078,89.408,30.336
					c1.309-0.808-14.849-9.464-13.629-10.372c9.518,12.634,20.021,24.534,31.445,35.604c-0.865,1.337-1.716,2.695-2.491,4.133
					c-14.953,27.759-6.653,63.739,18.556,80.396c25.239,16.677,57.885,7.689,72.9-20.108c0.777-1.441,1.455-2.917,2.109-4.398
					c14.307,5.879,28.854,10.47,43.533,13.754c-0.141,1.626-0.261,3.257-0.28,4.921c-0.353,32.457,23.28,59.252,52.82,59.847
					c29.58,0.595,53.874-25.299,54.225-57.834c0.018-1.7-0.067-3.374-0.178-5.04c14.96-2.778,29.702-6.826,44.099-12.113
					c0.631,1.525,1.289,3.044,2.049,4.532c14.547,28.49,47.37,38.796,73.332,22.982c25.992-15.832,35.232-51.821,20.622-80.352
					c-0.749-1.46-1.575-2.841-2.415-4.205c11.621-10.572,22.562-22.243,32.734-34.94
					C1367.323,3082.487,1368.579,3083.438,1369.91,3084.306z M1046.769,3053.14c-91.701-60.187-121.83-190.616-67.532-291.766
					c54.425-101.388,173.346-135.575,265.858-75.917c92.908,59.914,123.641,191.468,68.401,293.385
					C1258.384,3080.52,1138.859,3113.583,1046.769,3053.14z"/>
				
					<linearGradient id="SVGID_00000016757138657472228090000009666468898133929911_" gradientUnits="userSpaceOnUse" x1="1266.2001" y1="2849.2859" x2="1360.6803" y2="2891.802" gradientTransform="matrix(0.9996 0.0299 -0.0299 0.9996 -127.6115 -64.223)">
					<stop  offset="0" style="stop-color:#311944"/>
					<stop  offset="1" style="stop-color:#893976"/>
				</linearGradient>
				<path style="fill:url(#SVGID_00000016757138657472228090000009666468898133929911_);" d="M1438.083,2932.29
					c29.972,0.385,54.582-25.845,54.933-58.589c0.35-32.743-23.693-59.536-53.664-59.84c-1.566-0.016-3.107,0.083-4.639,0.209
					c-2.635-16.495-6.436-32.729-11.369-48.569c1.398-0.699,2.79-1.429,4.154-2.272c26.114-16.118,59.124-58.193,41.815-85.099
					c-32.812-51.006-68.801-33.945-94.85-17.787c-1.334,0.828-2.593,1.739-3.837,2.668c-9.711-12.66-20.415-24.557-32.044-35.596
					c0.881-1.357,1.745-2.735,2.533-4.193c8.28-15.331,9.499-33.02,4.8-48.623c-25.915,42.907-51.478,85.989-76.586,129.315
					c73.637,65.651,94.267,182.495,44.166,274.929c-42.371,78.176-122.862,115.743-199.657,101.46
					c-3.707,8.989-7.353,18.035-11.299,26.904c-10.704,24.062-22.743,47.443-34.788,70.778c7.07,2.216,14.182,4.135,21.326,5.735
					c-0.141,1.626-0.261,3.258-0.28,4.921c-0.353,32.458,17.479,62.107,70.971,65.22c29.646,1.726,35.722-30.671,36.074-63.208
					c0.018-1.7-0.067-3.374-0.177-5.04c14.96-2.778,29.701-6.827,44.098-12.113c0.631,1.525,1.289,3.044,2.049,4.532
					c14.547,28.492,67.529,45.895,93.515,30.078c26.016-15.836,15.049-58.917,0.439-87.447c-0.749-1.461-1.575-2.841-2.415-4.206
					c11.621-10.571,22.562-22.242,32.734-34.939c1.238,0.969,2.494,1.921,3.825,2.786c25.702,16.764,58.94,7.612,74.219-20.472
					c15.289-28.102,6.782-64.469-18.983-81.191c-1.333-0.866-2.699-1.62-4.069-2.347c5.351-15.885,9.511-32.032,12.464-48.312
					C1435.042,2932.136,1436.549,2932.269,1438.083,2932.29z"/>
				
					<linearGradient id="SVGID_00000003085950399752888480000003549041718698580382_" gradientUnits="userSpaceOnUse" x1="1248.7938" y1="2705.4758" x2="1703.0973" y2="3325.5396" gradientTransform="matrix(0.9996 0.0299 -0.0299 0.9996 -127.6115 -64.223)">
					<stop  offset="0" style="stop-color:#FF9085"/>
					<stop  offset="1" style="stop-color:#FB6FBB"/>
				</linearGradient>
				<path style="fill:url(#SVGID_00000003085950399752888480000003549041718698580382_);" d="M1397.902,3090.737
					c25.735,16.777,59.015,7.625,74.313-20.476c15.308-28.119,6.789-64.509-19.009-81.245c-1.335-0.866-2.702-1.621-4.074-2.349
					c5.358-15.895,9.523-32.05,12.48-48.342c1.502,0.156,3.01,0.29,4.547,0.309c30.01,0.391,54.651-25.853,55.001-58.618
					c0.349-32.765-23.724-59.577-53.734-59.887c-1.568-0.016-3.11,0.083-4.645,0.209c-2.639-16.506-6.445-32.752-11.384-48.602
					c1.4-0.7,2.793-1.43,4.159-2.272c26.146-16.125,35.44-52.299,20.739-80.76c-14.691-28.441-47.76-38.365-73.843-22.2
					c-1.336,0.828-2.596,1.74-3.843,2.669c-9.723-12.669-20.441-24.576-32.085-35.623c0.882-1.358,1.747-2.737,2.537-4.197
					c15.234-28.188,6.76-64.388-18.909-80.821c-25.64-16.414-58.709-6.874-73.882,21.274c-0.786,1.458-1.471,2.949-2.13,4.446
					c-14.442-5.707-29.105-10.111-43.882-13.197c0.141-1.632,0.262-3.268,0.281-4.937c0.351-32.538-23.399-58.99-53.012-59.081
					c-29.573-0.093-53.803,26.147-54.156,58.605c-0.019,1.697,0.067,3.365,0.176,5.025c-14.894,2.981-29.552,7.219-43.85,12.68
					c-0.626-1.51-1.278-3.013-2.032-4.486c-14.42-28.142-46.893-37.887-72.515-21.8c-25.592,16.07-34.683,51.851-20.325,79.955
					c0.736,1.44,1.548,2.8,2.375,4.143c-11.433,10.603-22.188,22.277-32.177,34.95c-1.214-0.948-2.446-1.878-3.751-2.725
					c-25.178-16.334-57.662-6.964-72.571,20.896c-14.901,27.842-6.633,63.66,18.485,80.034c1.303,0.849,2.635,1.587,3.973,2.3
					c-5.23,15.718-9.297,31.679-12.184,47.769c-1.463-0.148-2.933-0.277-4.428-0.293c-29.189-0.301-53.11,25.601-53.464,57.858
					c-0.354,32.257,22.994,58.713,52.182,59.094c1.526,0.02,3.03-0.073,4.525-0.194c2.565,16.303,6.269,32.36,11.08,48.037
					c-1.365,0.685-2.725,1.398-4.057,2.225c-25.472,15.785-34.524,51.41-20.235,79.601c14.298,28.211,46.575,38.342,72.108,22.596
					c1.309-0.809,2.546-1.7,3.767-2.609c9.531,12.644,20.047,24.553,31.485,35.631c-0.867,1.338-1.718,2.696-2.494,4.136
					c-14.972,27.774-6.661,63.777,18.581,80.449c25.271,16.691,57.958,7.703,72.991-20.112c0.779-1.44,1.457-2.917,2.111-4.399
					c14.326,5.885,28.892,10.481,43.588,13.769c-0.14,1.627-0.261,3.26-0.28,4.924c-0.351,32.477,23.311,59.292,52.888,59.892
					c29.617,0.6,53.941-25.307,54.292-57.864c0.019-1.701-0.066-3.377-0.178-5.043c14.979-2.777,29.739-6.826,44.155-12.114
					c0.632,1.525,1.291,3.047,2.052,4.535c14.566,28.511,47.431,38.828,73.424,23.008c26.024-15.838,35.276-51.849,20.647-80.401
					c-0.75-1.46-1.577-2.842-2.418-4.208c11.635-10.576,22.59-22.253,32.775-34.957
					C1395.312,3088.916,1396.569,3089.868,1397.902,3090.737z M1074.352,3059.504c-91.817-60.238-121.986-190.753-67.622-291.961
					c54.492-101.443,173.561-135.636,266.191-75.927c93.026,59.965,123.8,191.607,68.493,293.582
					C1286.235,3086.933,1166.562,3119.999,1074.352,3059.504z"/>
			</g>
		</g>
		<g>
			<g>
				<g>
					
						<linearGradient id="SVGID_00000090991585516125728260000003509694142912760494_" gradientUnits="userSpaceOnUse" x1="5054.188" y1="14771.2959" x2="4695.2964" y2="15401.5449" gradientTransform="matrix(-0.7071 -0.7071 0.7071 -0.7071 -6361.5347 15599.4854)">
						<stop  offset="0" style="stop-color:#444B8C"/>
						<stop  offset="0.9964" style="stop-color:#26264F"/>
					</linearGradient>
					<path style="fill:url(#SVGID_00000090991585516125728260000003509694142912760494_);" d="M647.217,1356.875
						c84.682-73.656,217.686-65.806,297.185,14.183c77.646,78.125,77.646,198.783,0,272.673
						c-79.499,75.654-212.503,76.251-297.185-2.023C560.423,1561.482,560.423,1432.368,647.217,1356.875z"/>
				</g>
				<g>
					
						<linearGradient id="SVGID_00000056410907293070961850000015590801475503293077_" gradientUnits="userSpaceOnUse" x1="5054.8574" y1="14784.6631" x2="4695.9658" y2="15414.9121" gradientTransform="matrix(-0.7071 -0.7071 0.7071 -0.7071 -6361.5347 15599.4854)">
						<stop  offset="0" style="stop-color:#AA80F9"/>
						<stop  offset="0.9964" style="stop-color:#6165D7"/>
					</linearGradient>
					<path style="fill:url(#SVGID_00000056410907293070961850000015590801475503293077_);" d="M656.195,1346.949
						c84.682-73.656,217.686-65.806,297.185,14.183c77.647,78.125,77.647,198.783,0,272.673
						c-79.499,75.654-212.503,76.251-297.185-2.023C569.402,1551.557,569.402,1422.443,656.195,1346.949z"/>
				</g>
				<g style="opacity:0.5;">
					<path style="fill:#FFFFFF;" d="M677.429,1368.36c72.295-62.882,185.844-56.18,253.714,12.108
						c66.289,66.697,66.289,169.706,0,232.788c-67.871,64.588-181.419,65.097-253.714-1.727
						C603.331,1543.038,603.331,1432.811,677.429,1368.36z"/>
				</g>
				<path style="opacity:0.3;fill:#FFFFFF;" d="M668.451,1383.064c72.295-62.881,185.844-56.18,253.714,12.109
					c53.545,53.874,63.814,131.432,30.857,192.509c43.354-62.87,36.065-148.913-21.878-207.213
					c-67.871-68.289-181.419-74.99-253.714-12.109c-15.576,13.549-27.834,29.135-36.862,45.915
					C648.268,1403.071,657.532,1392.56,668.451,1383.064z"/>
			</g>
			<g>
				<path style="fill:#FFFFFF;" d="M908.758,1481.682c0,12.628-2.017,24.181-6.051,34.66s-9.734,18.7-17.1,24.663
					c-7.366,5.963-15.916,8.945-25.65,8.945c-6.489,0-12.233-1.557-17.231-4.67c-4.998-3.113-8.594-7.213-10.786-12.299h-2.105
					c-9.471,11.312-21.528,16.968-36.173,16.968c-15.521,0-27.754-4.67-36.699-14.009c-8.944-9.339-13.417-22.12-13.417-38.343
					c0-18.503,5.875-33.41,17.626-44.723c11.751-11.312,27.097-16.968,46.038-16.968c7.541,0,15.85,0.724,24.926,2.17
					c9.076,1.447,16.552,3.179,22.427,5.196l-3.025,64.322c0,12.189,3.332,18.284,9.997,18.284c5.612,0,10.085-4.099,13.417-12.299
					c3.332-8.199,4.998-18.919,4.998-32.161c0-14.118-2.938-26.592-8.813-37.422c-5.875-10.83-14.14-19.095-24.795-24.795
					s-22.822-8.55-36.502-8.55c-17.714,0-33.104,3.639-46.169,10.918s-23.085,17.779-30.056,31.503
					c-6.971,13.724-10.457,29.574-10.457,47.551c0,24.203,6.467,42.771,19.402,55.706s31.678,19.402,56.232,19.402
					c9.295,0,19.511-1.03,30.648-3.091c11.137-2.061,22.098-5.064,32.884-9.01v25.255c-18.766,7.98-39.593,11.97-62.48,11.97
					c-33.323,0-59.301-8.769-77.936-26.308c-18.634-17.538-27.952-41.916-27.952-73.135c0-21.66,4.757-41.325,14.272-58.994
					c9.515-17.67,23.063-31.525,40.645-41.566c17.582-10.041,37.817-15.061,60.704-15.061c19.292,0,36.523,3.946,51.694,11.838
					c15.171,7.892,26.877,19.117,35.12,33.673C904.636,1445.86,908.758,1462.653,908.758,1481.682z M774.064,1498.124
					c0,18.503,7.541,27.754,22.624,27.754c7.892,0,13.899-2.784,18.021-8.353c4.122-5.568,6.621-14.623,7.498-27.162l1.71-29.07
					c-4.472-0.965-9.515-1.447-15.127-1.447c-10.961,0-19.489,3.42-25.584,10.26
					C777.111,1476.947,774.064,1486.286,774.064,1498.124z"/>
			</g>
		</g>
	</g>
</g>
</svg>
