<?xml version="1.0" encoding="utf-8"?>
<!-- Generator: Adobe Illustrator 23.1.0, SVG Export Plug-In . SVG Version: 6.00 Build 0)  -->
<svg version="1.1" id="Layer_1" xmlns="http://www.w3.org/2000/svg" xmlns:xlink="http://www.w3.org/1999/xlink" x="0px" y="0px"
	 viewBox="0 0 540 400" style="enable-background:new 0 0 540 400;" xml:space="preserve">
<style type="text/css">
	.st0{opacity:0.8;fill:#EBF3FF;}
	.st1{fill:#B8D0FF;}
	.st2{fill:none;stroke:#FFFFFF;stroke-miterlimit:10;}
	.st3{fill:#5D81EC;}
	.st4{fill:#FFFFFF;}
	.st5{opacity:0.2;fill:#5D81EC;}
	.st6{fill:#2D4C7F;}
	.st7{fill:#4E73A8;}
	.st8{opacity:0.2;fill:#2D4C7F;}
	.st9{fill:#EBF3FF;}
	.st10{opacity:0.5;fill:#B8D0FF;}
	.st11{fill:#FFBF00;}
	.st12{fill:#9EC0FF;}
	.st13{fill:#88ADEA;}
	.st14{fill:#2E6ADB;}
	.st15{fill:#FFA607;}
	.st16{fill:none;stroke:#26395E;stroke-width:0.5;stroke-miterlimit:10;}
	.st17{fill:#77A3E8;}
	.st18{fill:none;stroke:#FFFFFF;stroke-width:2;stroke-miterlimit:10;}
	.st19{opacity:0.2;fill:#2E6ADB;}
	.st20{opacity:0.3;fill:#5D81EC;}
	.st21{opacity:0.2;fill:#FFA607;}
	.st22{opacity:0.6;fill:#B8D0FF;}
</style>
<path class="st0" d="M439.3,135.63v-6.62c0-9.57-3.61-17.87-8.89-22.02c4.69-4.07,7.84-11.69,7.84-20.41v-6.29
	c0-13.02-7.02-23.57-15.68-23.57h-26.78c1.7-2.7,2.74-6.33,2.74-10.33c0-8.31-4.48-15.05-10.01-15.05H231.91
	c-5.53,0-10.01,6.74-10.01,15.05c0,2.41-0.44,6.69,1.06,6.69c8.7,0,20.02,0,20.02,0c4.24,0,7.67,4.01,7.67,8.96
	c0,4.95-3.43,8.96-7.67,8.96H122.95c-0.04,0-0.08-0.01-0.11-0.01c-0.82,2.85-1.27,6-1.27,9.3v6.29c0,7,2.03,13.29,5.26,17.61h-4.43
	c-9.11,0-16.51,11.11-16.51,24.82v6.62c0,12.57,6.22,22.95,14.28,24.59h67.43c4.75,0,8.59,5.79,8.59,12.92
	c0,7.14-3.85,12.92-8.59,12.92h-65.2v99.64c0,13.28,7.16,24.05,15.99,24.05h23.68c-1.8,3.51-2.88,7.91-2.88,12.69
	c0,11.48,6.19,20.78,13.82,20.78h216.3c7.63,0,13.82-9.3,13.82-20.78c0-4.78-1.08-9.18-2.88-12.69l-92.14-0.32
	c-4.75,0-8.59-5.79-8.59-12.92c0-7.14,3.85-12.92,8.59-12.92H439.3V181.48c0-10.45-4.44-19.35-10.63-22.66
	C434.88,155.26,439.3,146.22,439.3,135.63z"/>
<g>
	<path class="st1" d="M308.36,73.83h-1.84c-1.17,0-2.22-0.75-2.6-1.88c-0.29-0.86-0.64-1.69-1.01-2.49
		c-0.52-1.07-0.31-2.36,0.52-3.2l1.3-1.32c0.97-0.99,0.97-2.59,0-3.57l-4.18-4.26c-0.97-0.99-2.55-0.99-3.51,0l-1.31,1.33
		c-0.83,0.85-2.09,1.06-3.15,0.54c-0.79-0.39-1.61-0.74-2.46-1.04c-1.1-0.39-1.84-1.45-1.84-2.64v-1.87c0-1.4-1.11-2.53-2.49-2.53
		h-5.92c-1.37,0-2.49,1.13-2.49,2.53v1.87c0,1.19-0.74,2.25-1.84,2.64c-0.84,0.3-1.66,0.65-2.45,1.04c-1.05,0.52-2.31,0.3-3.15-0.54
		l-1.3-1.33c-0.97-0.99-2.55-0.99-3.51,0l-4.19,4.26c-0.97,0.98-0.97,2.58,0,3.57l1.3,1.32c0.83,0.85,1.05,2.13,0.53,3.2
		c-0.38,0.81-0.73,1.64-1.02,2.49c-0.38,1.12-1.43,1.88-2.61,1.88h-1.84c-1.37,0-2.49,1.13-2.49,2.53v6.02
		c0,1.4,1.11,2.53,2.49,2.53h1.84c1.17,0,2.22,0.75,2.61,1.88c0.29,0.86,0.63,1.69,1.02,2.49c0.52,1.08,0.3,2.36-0.53,3.2l-1.3,1.32
		c-0.97,0.99-0.97,2.59,0,3.57l4.19,4.26c0.97,0.98,2.54,0.98,3.51,0l1.3-1.32c0.83-0.84,2.1-1.07,3.15-0.54
		c0.79,0.39,1.61,0.73,2.45,1.04c1.11,0.39,1.84,1.45,1.84,2.64v1.87c0,1.4,1.11,2.52,2.49,2.52h5.92c1.37,0,2.49-1.13,2.49-2.52
		v-1.87c0-1.19,0.74-2.26,1.84-2.64c0.85-0.3,1.66-0.64,2.46-1.04c1.06-0.52,2.32-0.3,3.15,0.54l1.31,1.32
		c0.97,0.98,2.54,0.98,3.51,0l4.18-4.26c0.97-0.98,0.97-2.58,0-3.57l-1.3-1.32c-0.83-0.84-1.05-2.12-0.52-3.2
		c0.38-0.8,0.72-1.64,1.01-2.49c0.38-1.13,1.42-1.88,2.6-1.88h1.84c1.37,0,2.48-1.13,2.48-2.53v-6.02
		C310.85,74.97,309.73,73.83,308.36,73.83z"/>
	<path class="st2" d="M297.8,79.37c0,8.27-6.7,14.97-14.96,14.97c-8.26,0-14.96-6.7-14.96-14.97c0-8.26,6.7-14.96,14.96-14.96
		C291.1,64.4,297.8,71.1,297.8,79.37z"/>
</g>
<path class="st1" d="M182.68,92.73l-1.19-7.9c-0.28-1.83-2.04-3.08-3.94-2.8L175,82.42c-1.62,0.24-3.22-0.52-3.96-1.92
	c-0.58-1.06-1.22-2.08-1.9-3.06c-0.93-1.3-0.89-3.03,0.09-4.31l1.54-2.01c1.15-1.49,0.83-3.6-0.71-4.68l-6.63-4.71
	c-1.54-1.1-3.71-0.77-4.86,0.73l-1.54,2.01c-0.97,1.28-2.68,1.83-4.25,1.37c-1.17-0.35-2.37-0.63-3.6-0.85
	c-1.6-0.28-2.83-1.52-3.07-3.08l-0.37-2.46c-0.28-1.83-2.04-3.08-3.94-2.79l-8.18,1.23c-1.9,0.29-3.22,2-2.94,3.83l0.37,2.46
	c0.24,1.56-0.58,3.11-2.03,3.85c-1.11,0.57-2.17,1.2-3.18,1.88c-1.36,0.9-3.14,0.88-4.46-0.06l-2.07-1.46
	c-1.54-1.1-3.71-0.77-4.86,0.73l-4.95,6.46c-1.15,1.49-0.83,3.6,0.71,4.69l2.06,1.47c1.32,0.93,1.88,2.58,1.37,4.09
	c-0.37,1.14-0.68,2.3-0.91,3.48c-0.31,1.56-1.6,2.76-3.22,3.01l-2.54,0.38c-1.9,0.29-3.21,2-2.94,3.83l1.19,7.9
	c0.28,1.83,2.04,3.08,3.94,2.79l2.54-0.38c1.62-0.24,3.22,0.52,3.97,1.92c0.57,1.06,1.21,2.08,1.9,3.06
	c0.93,1.31,0.88,3.03-0.1,4.31l-1.54,2c-1.15,1.51-0.83,3.6,0.71,4.69l6.63,4.71c1.54,1.1,3.71,0.77,4.86-0.73l1.54-2.01
	c0.98-1.28,2.68-1.83,4.24-1.37c1.17,0.35,2.37,0.63,3.6,0.85c1.61,0.27,2.84,1.52,3.08,3.08l0.37,2.46
	c0.28,1.83,2.04,3.08,3.94,2.8l8.19-1.23c1.9-0.29,3.21-2.01,2.94-3.84l-0.37-2.45c-0.23-1.57,0.58-3.11,2.02-3.85
	c1.11-0.57,2.17-1.19,3.19-1.88c1.36-0.9,3.15-0.87,4.46,0.06l2.07,1.46c1.53,1.1,3.7,0.77,4.86-0.73l4.94-6.46
	c1.15-1.5,0.83-3.59-0.71-4.69l-2.06-1.46c-1.31-0.93-1.86-2.57-1.36-4.09c0.37-1.14,0.67-2.3,0.91-3.48
	c0.3-1.56,1.59-2.76,3.22-3.01l2.55-0.38C181.64,96.27,182.95,94.56,182.68,92.73z M147.58,112.32
	c-11.36,2.61-22.26-5.13-23.03-16.35c-0.61-8.83,5.66-17.01,14.59-19.05c11.35-2.61,22.26,5.13,23.03,16.35
	C162.76,102.09,156.5,110.27,147.58,112.32z"/>
<g>
	<rect x="189.05" y="43.81" class="st3" width="59.31" height="55.91"/>
	<g>
		<path class="st4" d="M202.19,70.87c3.24,0,3.69-1.78,3.69-3.38c0-1.28-0.18-2.55-0.37-3.83c-0.18-1.28-0.36-2.51-0.36-3.79
			c0-4.2,2.74-5.98,6.61-5.98h0.96v2.51h-0.82c-2.69,0-3.6,1.46-3.6,3.92c0,1.05,0.14,2.14,0.32,3.24c0.18,1.14,0.32,2.24,0.32,3.47
			c0.05,2.92-1.23,4.38-3.28,4.93v0.09c2.05,0.5,3.33,2.05,3.28,4.97c0,1.23-0.14,2.37-0.32,3.47c-0.18,1.14-0.32,2.19-0.32,3.28
			c0,2.55,1.05,3.97,3.6,3.97h0.82v2.51h-0.96c-3.79,0-6.61-1.64-6.61-6.25c0-1.23,0.18-2.51,0.36-3.74
			c0.18-1.23,0.37-2.46,0.37-3.7c0-1.41-0.46-3.38-3.69-3.38V70.87z"/>
		<path class="st4" d="M235.21,73.2c-3.24,0-3.7,1.96-3.7,3.38c0,1.23,0.18,2.46,0.36,3.7c0.18,1.23,0.37,2.51,0.37,3.74
			c0,4.61-2.87,6.25-6.61,6.25h-0.96v-2.51h0.78c2.55-0.05,3.65-1.41,3.65-3.97c0-1.09-0.18-2.14-0.32-3.28
			c-0.18-1.09-0.37-2.23-0.37-3.47c0-2.92,1.28-4.47,3.28-4.97v-0.09c-2.01-0.55-3.28-2.01-3.28-4.93c0-1.23,0.18-2.33,0.37-3.47
			c0.14-1.09,0.32-2.19,0.32-3.24c0-2.46-0.96-3.88-3.6-3.92h-0.82V53.9h0.91c3.88,0,6.66,1.78,6.66,5.98
			c0,1.28-0.18,2.51-0.37,3.79c-0.18,1.28-0.36,2.55-0.36,3.83c0,1.6,0.46,3.38,3.7,3.38V73.2z"/>
	</g>
	<path class="st5" d="M242.66,83.72c-2.94-0.31-5.87-1.04-8.82-1.19c-3.14-0.16-6.27-0.02-9.41-0.03c-5.3-0.03-10.92-0.52-15.53-3.4
		c-6.35-3.97-8.14-10.45-8.04-17.6c0.07-5.71,1.11-12.35-1.28-17.7h-10.53v55.91h59.31V83.52
		C246.59,83.84,244.71,83.93,242.66,83.72z"/>
</g>
<g>
	<g>
		<path class="st6" d="M252.76,261.4v30.93h12.45v-11.67c0-4.08,3.31-7.39,7.39-7.39c4.08,0,7.39,3.31,7.39,7.39v11.67h12.45V261.4
			H252.76z"/>
		<rect x="212.11" y="290.38" class="st7" width="120.97" height="8.17"/>
		<rect x="252.76" y="261.4" class="st8" width="39.58" height="7.49"/>
	</g>
	<g>
		<rect x="130.68" y="91.32" class="st7" width="283.83" height="149.2"/>
		<g>
			<rect x="139.6" y="96.9" class="st9" width="265.98" height="137.19"/>
			<path class="st10" d="M386.31,233.28c-10.54-2.54-20.59-6.64-30.41-11.19c-9.85-4.56-19.73-9.14-29.43-14.01
				c-52.01-26.14-98.24-65.1-134.02-111.18H139.6v137.19h250.3C388.7,233.84,387.5,233.57,386.31,233.28z"/>
		</g>
		<rect x="139.43" y="234.09" class="st6" width="266.33" height="2.51"/>
		<path class="st6" d="M130.66,240.46v10.94c0,6.9,5.54,12.49,12.36,12.49h259.14c6.83,0,12.37-5.59,12.37-12.49v-10.94H130.66z"/>
		<path class="st7" d="M276.88,251.38c0,2.37-1.92,4.29-4.29,4.29c-2.37,0-4.29-1.92-4.29-4.29c0-2.37,1.92-4.29,4.29-4.29
			C274.96,247.09,276.88,249.01,276.88,251.38z"/>
	</g>
</g>
<g>
	<path class="st11" d="M371.15,98.84l-14.86,7.97c10.42,16.52,31.63,22.93,49.46,14.93l-7.97-14.86
		C388.23,110.56,377.08,107.19,371.15,98.84z"/>
	<path class="st3" d="M393.42,62.98l4.55-15.23c-8.05-1.79-16.47-1.58-24.46,2.03l8.01,14.84
		C385.37,63.12,389.55,62.35,393.42,62.98z"/>
	<path class="st1" d="M424.31,67.15c-4.65-8.67-12.1-14.38-20.62-17.64l-4.6,15.22c4.39,1.96,7.91,5.82,10.36,10.39
		c5.41,10.1,2.4,22.65-6.71,29.11l7.97,14.86C428.02,108.16,434.13,85.46,424.31,67.15z"/>
	<path class="st12" d="M376.54,67.25l-7.97-14.86c-16.52,10.42-22.93,31.64-14.93,49.46l14.86-7.97
		C364.81,84.33,368.18,73.18,376.54,67.25z"/>
	<g>
		<path class="st13" d="M379.19,72.21l-2.66-4.95c-8.36,5.92-11.73,17.07-8.04,26.63l4.95-2.66
			C371.16,84.45,373.54,76.58,379.19,72.21z"/>
	</g>
	<g>
		<path class="st14" d="M391.67,68.7l1.72-5.71c-3.87-0.65-8.05,0.12-11.9,1.6l2.66,4.95C386.6,68.72,389.21,68.4,391.67,68.7z"/>
	</g>
	<g>
		<path class="st15" d="M376.11,96.18l-4.95,2.66c5.92,8.36,17.07,11.72,26.63,8.04l-2.66-4.95
			C388.35,104.21,380.49,101.84,376.11,96.18z"/>
	</g>
	<g>
		<path class="st13" d="M404.5,77.77c3.95,7.36,1.98,16.55-4.42,21.5l2.66,4.95c9.12-6.46,12.13-19.01,6.71-29.11
			c-2.45-4.57-5.96-8.43-10.36-10.39l-1.72,5.71C400.39,71.93,402.78,74.57,404.5,77.77z"/>
	</g>
</g>
<g>
	<g>
		<rect x="284.75" y="261.23" class="st3" width="32.74" height="77.46"/>
		<rect x="284.75" y="261.23" class="st14" width="4.34" height="76.42"/>
	</g>
	<g>
		<rect x="336.73" y="240.35" class="st1" width="34.19" height="98.35"/>
		<rect x="336.73" y="240.35" class="st12" width="5.11" height="96.9"/>
	</g>
	<g>
		<rect x="389.44" y="220.56" class="st11" width="34.2" height="118.13"/>
		<rect x="389.44" y="220.56" class="st15" width="4.88" height="115.84"/>
	</g>
	<line class="st16" x1="434.92" y1="338.7" x2="251.84" y2="338.7"/>
</g>
<g>
	<g>
		<path class="st3" d="M362.16,127.43c-9.12-9.47-21.25-14.69-34.15-14.69c-12.9,0-25.03,5.22-34.15,14.69l-21.24,22.06
			l-21.24-22.06c-9.12-9.47-21.25-14.69-34.15-14.69c-12.9,0-25.03,5.22-34.15,14.69c-18.83,19.55-18.83,51.37,0,70.92
			c9.42,9.78,21.78,14.67,34.15,14.67c12.37,0,24.73-4.89,34.15-14.67l21.24-22.06l21.24,22.06c9.42,9.78,21.79,14.67,34.15,14.67
			c12.37,0,24.74-4.89,34.15-14.67c9.12-9.47,14.15-22.07,14.15-35.46S371.28,136.91,362.16,127.43z M238.47,184.96
			c-5.68,5.89-13.22,9.14-21.25,9.14c-8.03,0-15.58-3.25-21.25-9.14c-5.68-5.89-8.8-13.73-8.8-22.07c0-8.34,3.12-16.17,8.8-22.07
			c5.68-5.89,13.22-9.14,21.25-9.14c8.03,0,15.57,3.25,21.25,9.14l21.25,22.07L238.47,184.96z M259.72,162.9l-21.25,22.07
			 M349.25,184.96c-11.72,12.17-30.78,12.17-42.5,0L285.5,162.9l21.25-22.07c5.68-5.89,13.22-9.14,21.25-9.14
			c8.03,0,15.57,3.25,21.25,9.14c5.68,5.89,8.8,13.73,8.8,22.07C358.06,171.23,354.93,179.07,349.25,184.96z"/>
		<polygon class="st14" points="301.55,179.71 258.42,134.9 244.11,146.76 288.18,192.21 		"/>
		<path class="st12" d="M363.16,128.51c-4.96,3.84-9.7,7.97-13.42,12.85c5.36,5.83,8.31,13.44,8.31,21.53
			c0,8.34-3.12,16.17-8.8,22.07c-4.74,4.92-10.67,7.84-16.84,8.79c4.26,5.04,8.5,10.5,11.92,16.33c6.51-2.42,12.62-6.32,17.82-11.72
			c9.12-9.47,14.15-22.07,14.15-35.46C376.3,150,371.65,137.85,363.16,128.51z"/>
		<path class="st12" d="M182.03,128.64c4.96,3.84,9.7,7.97,13.42,12.85c-5.36,5.83-8.31,13.44-8.31,21.53
			c0,8.34,3.13,16.17,8.8,22.07c4.74,4.92,10.67,7.84,16.84,8.79c-4.26,5.04-8.5,10.5-11.92,16.33
			c-6.51-2.42-12.62-6.32-17.82-11.72c-9.12-9.47-14.15-22.07-14.15-35.46C168.89,150.13,173.54,137.98,182.03,128.64z"/>
		<polygon class="st17" points="236.09,187.34 279.38,142.66 293.53,154.39 249.89,200.11 		"/>
	</g>
	<line class="st16" x1="248.46" y1="195.99" x2="289.17" y2="154.26"/>
	<path class="st16" d="M175.95,147.77c-6.28,23.54,2.74,46.35,20.17,51.01"/>
	<path class="st16" d="M368.03,144.17c9.09,23.24,2.33,47.35-15.11,53.89"/>
</g>
<g>
	<rect x="267.56" y="71.04" class="st14" width="63.66" height="39.97"/>
	<g>
		<polyline class="st18" points="289.27,78.11 277.13,89.63 288.28,98.96 		"/>
		<polyline class="st18" points="309.71,79.1 321.64,90.83 310.33,99.96 		"/>
		<line class="st18" x1="306.13" y1="75.86" x2="290.62" y2="106.2"/>
	</g>
	<path class="st19" d="M326.95,103.4c-11.07-5.93-25.29,0.42-35.73-7.04c-8.25-5.89-13.3-15.4-11.8-25.32h-11.86v39.97h63.66v-4.51
		C329.96,105.31,328.55,104.25,326.95,103.4z"/>
</g>
<g>
	<g>
		<path class="st3" d="M159.09,314.73c14.51,0,27.98,1.28,39.1,3.46c-5.37-18.93-21.61-32.7-40.83-32.7
			c-19.47,0-35.89,14.14-41.03,33.47C128.11,316.31,142.95,314.73,159.09,314.73z"/>
		<path class="st20" d="M192.64,310.89c-9.21,1.45-15.95-4.22-24.53-6.13c-5.72-1.27-11.57-1.28-17.26,0.25
			c-5.21,1.41-10.33,3.59-15.68,4.4c-4.94,0.75-10.66,0.25-13.22-3.47c-2.46,3.95-4.37,8.33-5.62,13.02
			c11.77-2.64,26.61-4.23,42.75-4.23c14.51,0,27.98,1.28,39.1,3.46c-0.77-2.74-1.78-5.36-2.99-7.85
			C194.37,310.56,193.52,310.75,192.64,310.89z"/>
	</g>
	<path class="st11" d="M175,322.41c6.25-15.58,9.72-32.79,9.72-50.88c0-30.25-9.69-58.02-25.85-79.81
		c-16.16,21.79-25.85,49.56-25.85,79.81c0,18.1,3.47,35.31,9.72,50.88H175z"/>
	<path class="st14" d="M139.26,312.59c1.04,3.34,2.21,6.61,3.49,9.82H175c1.29-3.21,2.45-6.48,3.49-9.82H139.26z"/>
	<polygon class="st14" points="175.09,338.7 142.66,338.7 147.91,322.41 169.85,322.41 	"/>
	<path class="st3" d="M158.88,191.71c-7.34,9.91-13.34,21.05-17.71,33.09h35.43C172.22,212.76,166.22,201.62,158.88,191.71z"/>
	<path class="st21" d="M176.8,317.64c0.33-2.04,0.66-4.07,0.97-6.11c1.07-6.99,4.92-19.53-3.16-23.85
		c-5.64-3.01-12.43-1.37-18.29-3.67c-4.99-1.95-8.58-5.43-10.74-10.33c-4.56-10.33-2.39-22.87-0.6-33.59
		c1.34-8.05,3.89-16.19,8.23-23.15c3.35-5.38,7.09-11.47,12.43-15.13c-2.11-3.49-4.36-6.86-6.76-10.1
		c-16.16,21.79-25.85,49.56-25.85,79.81c0,18.1,3.47,35.31,9.72,50.88H175C175.63,320.83,176.23,319.24,176.8,317.64z"/>
	<g>
		<g>
			<g>
				<path class="st4" d="M159.16,301.52c-6.05,0-10.98-4.92-10.98-10.98c0-6.05,4.93-10.98,10.98-10.98
					c6.06,0,10.99,4.93,10.99,10.98C170.15,296.6,165.21,301.52,159.16,301.52z"/>
				<path class="st1" d="M167.43,290.54c0,4.57-3.7,8.27-8.27,8.27c-4.56,0-8.26-3.7-8.26-8.27c0-4.56,3.7-8.26,8.26-8.26
					C163.72,282.28,167.43,285.98,167.43,290.54z"/>
			</g>
			<path class="st22" d="M159.33,293.25c-1.1-1.54-1.38-3.34-1.59-5.18c-0.22-1.9-0.5-3.14-2.63-3.39
				c-0.49-0.06-0.87-0.27-1.15-0.56c-1.87,1.52-3.06,3.82-3.06,6.41c0,4.57,3.7,8.27,8.26,8.27c2.65,0,5-1.25,6.51-3.18
				C163.4,296.73,160.84,295.36,159.33,293.25z"/>
		</g>
		<g>
			<g>
				<path class="st4" d="M159.16,241.75c-3.55,0-6.45-2.89-6.45-6.45c0-3.55,2.89-6.45,6.45-6.45c3.56,0,6.45,2.89,6.45,6.45
					C165.61,238.86,162.72,241.75,159.16,241.75z"/>
				<path class="st1" d="M164.01,235.3c0,2.68-2.17,4.85-4.85,4.85c-2.68,0-4.85-2.17-4.85-4.85c0-2.68,2.17-4.85,4.85-4.85
					C161.84,230.45,164.01,232.63,164.01,235.3z"/>
			</g>
			<path class="st22" d="M159.26,236.89c-0.64-0.91-0.81-1.96-0.93-3.04c-0.13-1.11-0.29-1.84-1.55-1.99
				c-0.29-0.03-0.51-0.16-0.68-0.33c-1.09,0.89-1.79,2.25-1.79,3.76c0,2.68,2.17,4.85,4.85,4.85c1.55,0,2.93-0.73,3.82-1.87
				C161.65,238.94,160.15,238.13,159.26,236.89z"/>
		</g>
		<g>
			<path class="st4" d="M159.16,273.91c-6.05,0-10.98-4.92-10.98-10.98c0-6.05,4.93-10.98,10.98-10.98
				c6.06,0,10.99,4.93,10.99,10.98C170.15,268.98,165.21,273.91,159.16,273.91z"/>
			<path class="st1" d="M167.43,262.92c0,4.57-3.7,8.27-8.27,8.27c-4.56,0-8.26-3.7-8.26-8.27c0-4.56,3.7-8.26,8.26-8.26
				C163.72,254.66,167.43,258.36,167.43,262.92z"/>
			<path class="st22" d="M158.6,264.59c-0.84-2.67-0.63-8.08-4.42-7.75c-0.21,0.02-0.39,0-0.56-0.04c-1.67,1.51-2.73,3.69-2.73,6.12
				c0,4.57,3.7,8.27,8.26,8.27c1.8,0,3.46-0.58,4.82-1.56C161.43,269.18,159.42,267.19,158.6,264.59z"/>
		</g>
	</g>
	<path class="st16" d="M144.47,230.28c-1.94,2.13-4.17,19.86-4.44,24.66c-0.59,10.54-0.15,21.7,0.93,32.11
		c0.35,3.41,1.73,14.64,2.22,18"/>
	<path class="st16" d="M176.3,261.74c2.89,8.53,1.85,39.05-0.37,42.01"/>
</g>
</svg>
