<?xml version="1.0" encoding="utf-8"?>
<!-- Generator: Adobe Illustrator 23.1.0, SVG Export Plug-In . SVG Version: 6.00 Build 0)  -->
<svg version="1.1" id="Layer_1" xmlns="http://www.w3.org/2000/svg" xmlns:xlink="http://www.w3.org/1999/xlink" x="0px" y="0px"
	 viewBox="0 0 540 400" style="enable-background:new 0 0 540 400;" xml:space="preserve">
<style type="text/css">
	.st0{fill:#FFE8F8;}
	.st1{fill:#00B3BF;}
	.st2{fill:#EAE9F3;}
	.st3{fill:#676E9C;}
	.st4{fill:#6CBDE1;}
	.st5{fill:url(#SVGID_1_);}
	.st6{opacity:0.32;fill:url(#SVGID_2_);}
	.st7{fill:#AFD6FF;}
	.st8{fill:url(#SVGID_3_);}
	.st9{fill:#87A2C2;}
	.st10{fill:#BADCFF;}
	.st11{fill:#7696B5;}
	.st12{fill:#8088C2;}
	.st13{fill:#8792CE;}
	.st14{opacity:0.28;fill:#370C62;}
	.st15{fill:#FD5E5A;}
	.st16{fill:#26004A;}
	.st17{fill:#130025;}
	.st18{fill:#FC7575;}
	.st19{fill:#00158E;}
	.st20{fill:#000F6B;}
	.st21{opacity:0.53;fill:#FD5E5A;}
	.st22{fill:#320063;}
	.st23{fill:#7881B6;}
	.st24{fill:#2C46E6;}
	.st25{fill:#7686E6;}
	.st26{fill:#FD6100;}
	.st27{opacity:0.66;fill:#FFFFFF;}
	.st28{fill:#FFFFFF;}
	.st29{opacity:0.44;fill:#000F6B;}
	.st30{fill:#0021DB;}
	.st31{fill:#00123F;}
	.st32{fill:#03257D;}
	.st33{fill:#001B5E;}
	.st34{fill:#BE4800;}
	.st35{fill:#FD7B2A;}
	.st36{fill:#AB3400;}
	.st37{fill:#2134AD;}
	.st38{fill:#CBD4FF;}
	.st39{fill:#727586;}
	.st40{fill:#DFE5FF;}
	.st41{fill:#6B9ECE;}
	.st42{opacity:0.18;fill:#6B9ECE;}
	.st43{fill:#FF1F20;}
</style>
<path class="st0" d="M122.65,361.44c0,0-31.76-28-73.85-120.94C6.7,147.56,22.72,38.12,98.37,27.6
	c75.64-10.52,134.38,34.28,134.38,34.28s84.37-26.95,151.71-8.52c67.34,18.43,60.72,108.76,60.72,108.76s42.47,25.08,59.8,82.07
	c17.33,56.99-42.29,117-42.29,117L122.65,361.44z"/>
<path class="st1" d="M494.52,366.8H97.29c-1.75,0-3.18-1.42-3.18-3.18v-1.69c0-1.75,1.42-3.18,3.18-3.18h397.23
	c1.75,0,3.18,1.42,3.18,3.18v1.69C497.7,365.38,496.28,366.8,494.52,366.8z"/>
<path class="st2" d="M414.38,308.7H144.07c-4.68,0-8.48-3.54-8.48-7.91l-5.14-185.06c0-4.37,3.8-7.91,8.48-7.91h283.17
	c4.68,0,8.48,3.54,8.48,7.91l-7.71,185.06C422.86,305.16,419.06,308.7,414.38,308.7z"/>
<path class="st3" d="M427.28,109.47c0.9,1.26,1.43,2.77,1.43,4.39l-7.71,185.06c0,4.37-3.8,7.91-8.48,7.91H142.2
	c-1.95,0-3.75-0.62-5.19-1.65c1.52,2.12,4.11,3.52,7.05,3.52h270.31c4.68,0,8.48-3.54,8.48-7.91l7.71-185.06
	C430.57,113.19,429.28,110.92,427.28,109.47z"/>
<path class="st4" d="M147.34,287.04l-5.14-165.88c0-4.37,3.8-7.91,8.48-7.91h262.61c4.68,0,8.48,3.54,8.48,7.91l-7.71,165.88
	c0,4.37-3.8,7.91-8.48,7.91H155.82C151.14,294.95,147.34,291.41,147.34,287.04z"/>
<linearGradient id="SVGID_1_" gradientUnits="userSpaceOnUse" x1="292.3575" y1="334.149" x2="278.4828" y2="120.6353">
	<stop  offset="0" style="stop-color:#0082C1"/>
	<stop  offset="1" style="stop-color:#8DDCFF"/>
</linearGradient>
<path class="st5" d="M146.96,291.11l-5.14-165.88c0-4.37,3.8-7.91,8.48-7.91H412.9c4.68,0,8.48,3.54,8.48,7.91l-7.71,165.88
	c0,4.37-3.8,7.91-8.48,7.91H155.44C150.75,299.02,146.96,295.47,146.96,291.11z"/>
<linearGradient id="SVGID_2_" gradientUnits="userSpaceOnUse" x1="288.749" y1="323.5142" x2="280.3027" y2="193.5361">
	<stop  offset="0" style="stop-color:#0082C1"/>
	<stop  offset="1" style="stop-color:#8DDCFF"/>
</linearGradient>
<path class="st6" d="M368.38,216.22c-31.86,56.04-87.36,31.32-162.86,19.77c-25.36-3.88-44.93,4.37-59.75,17.04l1.18,38.07
	c0,4.37,3.8,7.91,8.48,7.91h249.76c4.68,0,8.48-3.54,8.48-7.91l5.29-113.68C395.66,188.53,376.76,201.49,368.38,216.22z"/>
<g>
	<path class="st7" d="M403.74,288.99H399c-0.14,0-0.26-0.11-0.26-0.26c0-0.14,0.12-0.26,0.26-0.26h4.24l0.07-1.43
		c0.01-0.14,0.13-0.26,0.27-0.24c0.14,0.01,0.25,0.13,0.24,0.27L403.74,288.99z M392.84,288.99h-6.17c-0.14,0-0.26-0.11-0.26-0.26
		c0-0.14,0.12-0.26,0.26-0.26h6.17c0.14,0,0.26,0.12,0.26,0.26C393.1,288.88,392.98,288.99,392.84,288.99z M380.5,288.99h-6.17
		c-0.14,0-0.26-0.11-0.26-0.26c0-0.14,0.12-0.26,0.26-0.26h6.17c0.14,0,0.26,0.12,0.26,0.26
		C380.76,288.88,380.65,288.99,380.5,288.99z M368.17,288.99H362c-0.14,0-0.26-0.11-0.26-0.26c0-0.14,0.12-0.26,0.26-0.26h6.17
		c0.14,0,0.26,0.12,0.26,0.26C368.43,288.88,368.31,288.99,368.17,288.99z M355.84,288.99h-6.17c-0.14,0-0.26-0.11-0.26-0.26
		c0-0.14,0.12-0.26,0.26-0.26h6.17c0.14,0,0.26,0.12,0.26,0.26C356.09,288.88,355.98,288.99,355.84,288.99z M343.5,288.99h-6.17
		c-0.14,0-0.26-0.11-0.26-0.26c0-0.14,0.12-0.26,0.26-0.26h6.17c0.14,0,0.26,0.12,0.26,0.26
		C343.76,288.88,343.65,288.99,343.5,288.99z M331.17,288.99H325c-0.14,0-0.26-0.11-0.26-0.26c0-0.14,0.12-0.26,0.26-0.26h6.17
		c0.14,0,0.26,0.12,0.26,0.26C331.43,288.88,331.31,288.99,331.17,288.99z M318.84,288.99h-6.17c-0.14,0-0.26-0.11-0.26-0.26
		c0-0.14,0.11-0.26,0.26-0.26h6.17c0.14,0,0.26,0.12,0.26,0.26C319.09,288.88,318.98,288.99,318.84,288.99z M306.5,288.99h-6.17
		c-0.14,0-0.26-0.11-0.26-0.26c0-0.14,0.11-0.26,0.26-0.26h6.17c0.14,0,0.26,0.12,0.26,0.26
		C306.76,288.88,306.65,288.99,306.5,288.99z M294.17,288.99H288c-0.14,0-0.26-0.11-0.26-0.26c0-0.14,0.11-0.26,0.26-0.26h6.17
		c0.14,0,0.26,0.12,0.26,0.26C294.43,288.88,294.31,288.99,294.17,288.99z M281.84,288.99h-6.17c-0.14,0-0.26-0.11-0.26-0.26
		c0-0.14,0.11-0.26,0.26-0.26h6.17c0.14,0,0.26,0.12,0.26,0.26C282.09,288.88,281.98,288.99,281.84,288.99z M269.5,288.99h-6.17
		c-0.14,0-0.26-0.11-0.26-0.26c0-0.14,0.11-0.26,0.26-0.26h6.17c0.14,0,0.26,0.12,0.26,0.26
		C269.76,288.88,269.64,288.99,269.5,288.99z M257.17,288.99H251c-0.14,0-0.26-0.11-0.26-0.26c0-0.14,0.11-0.26,0.26-0.26h6.17
		c0.14,0,0.26,0.12,0.26,0.26C257.43,288.88,257.31,288.99,257.17,288.99z M244.84,288.99h-6.17c-0.14,0-0.26-0.11-0.26-0.26
		c0-0.14,0.11-0.26,0.26-0.26h6.17c0.14,0,0.26,0.12,0.26,0.26C245.09,288.88,244.98,288.99,244.84,288.99z M232.5,288.99h-6.17
		c-0.14,0-0.26-0.11-0.26-0.26c0-0.14,0.11-0.26,0.26-0.26h6.17c0.14,0,0.26,0.12,0.26,0.26
		C232.76,288.88,232.64,288.99,232.5,288.99z M220.17,288.99H214c-0.14,0-0.26-0.11-0.26-0.26c0-0.14,0.11-0.26,0.26-0.26h6.17
		c0.14,0,0.26,0.12,0.26,0.26C220.43,288.88,220.31,288.99,220.17,288.99z M207.83,288.99h-6.17c-0.14,0-0.26-0.11-0.26-0.26
		c0-0.14,0.11-0.26,0.26-0.26h6.17c0.14,0,0.26,0.12,0.26,0.26C208.09,288.88,207.98,288.99,207.83,288.99z M195.5,288.99h-6.17
		c-0.14,0-0.26-0.11-0.26-0.26c0-0.14,0.11-0.26,0.26-0.26h6.17c0.14,0,0.26,0.12,0.26,0.26
		C195.76,288.88,195.64,288.99,195.5,288.99z M183.17,288.99H177c-0.14,0-0.26-0.11-0.26-0.26c0-0.14,0.11-0.26,0.26-0.26h6.17
		c0.14,0,0.26,0.12,0.26,0.26C183.42,288.88,183.31,288.99,183.17,288.99z M170.83,288.99h-6.17c-0.14,0-0.26-0.11-0.26-0.26
		c0-0.14,0.11-0.26,0.26-0.26h6.17c0.14,0,0.26,0.12,0.26,0.26C171.09,288.88,170.98,288.99,170.83,288.99z M158.5,288.99h-1.58
		l-0.2-6.41c0-0.14,0.11-0.26,0.25-0.26c0.15,0.01,0.26,0.11,0.27,0.25l0.18,5.91h1.08c0.14,0,0.26,0.12,0.26,0.26
		C158.76,288.88,158.64,288.99,158.5,288.99z M403.86,281.16c0,0-0.01,0-0.01,0c-0.14-0.01-0.25-0.13-0.24-0.27l0.29-6.16
		c0.01-0.14,0.14-0.26,0.27-0.24c0.14,0.01,0.25,0.13,0.24,0.27l-0.29,6.16C404.11,281.05,403.99,281.16,403.86,281.16z
		 M156.78,276.67c-0.14,0-0.25-0.11-0.26-0.25l-0.19-6.16c0-0.14,0.11-0.26,0.25-0.26c0.15,0,0.26,0.11,0.26,0.25l0.19,6.16
		C157.05,276.54,156.93,276.66,156.78,276.67C156.79,276.67,156.79,276.67,156.78,276.67z M404.43,268.84c0,0-0.01,0-0.01,0
		c-0.14-0.01-0.25-0.13-0.24-0.27l0.29-6.16c0.01-0.14,0.13-0.26,0.27-0.24c0.14,0.01,0.25,0.13,0.24,0.27l-0.29,6.16
		C404.68,268.73,404.57,268.84,404.43,268.84z M156.4,264.34c-0.14,0-0.25-0.11-0.26-0.25l-0.19-6.16c0-0.14,0.11-0.26,0.25-0.26
		c0.14,0,0.26,0.11,0.26,0.25l0.19,6.16C156.66,264.22,156.55,264.34,156.4,264.34C156.41,264.34,156.4,264.34,156.4,264.34z
		 M405,256.52c0,0-0.01,0-0.01,0c-0.14-0.01-0.25-0.13-0.24-0.27l0.29-6.16c0.01-0.14,0.13-0.26,0.27-0.24
		c0.14,0.01,0.25,0.13,0.24,0.27l-0.29,6.16C405.25,256.41,405.14,256.52,405,256.52z M156.02,252.01c-0.14,0-0.25-0.11-0.26-0.25
		l-0.19-6.16c0-0.14,0.11-0.26,0.25-0.27c0.14,0.01,0.26,0.11,0.26,0.25l0.19,6.16C156.28,251.89,156.17,252.01,156.02,252.01
		C156.03,252.01,156.02,252.01,156.02,252.01z M405.57,244.2c0,0-0.01,0-0.01,0c-0.14-0.01-0.25-0.13-0.24-0.27l0.29-6.16
		c0.01-0.14,0.12-0.26,0.27-0.24c0.14,0.01,0.25,0.13,0.24,0.27l-0.29,6.16C405.83,244.09,405.71,244.2,405.57,244.2z
		 M155.64,239.68c-0.14,0-0.25-0.11-0.26-0.25l-0.19-6.16c0-0.14,0.11-0.26,0.25-0.26c0.15-0.01,0.26,0.11,0.27,0.25l0.19,6.16
		C155.9,239.56,155.79,239.68,155.64,239.68C155.64,239.68,155.64,239.68,155.64,239.68z M406.15,231.88c0,0-0.01,0-0.01,0
		c-0.14-0.01-0.25-0.13-0.24-0.27l0.29-6.16c0.01-0.14,0.13-0.26,0.27-0.24c0.14,0.01,0.25,0.13,0.24,0.27l-0.29,6.16
		C406.4,231.77,406.28,231.88,406.15,231.88z M155.26,227.36c-0.14,0-0.25-0.11-0.26-0.25l-0.19-6.16c0-0.14,0.11-0.26,0.25-0.26
		c0.15,0,0.26,0.11,0.26,0.25l0.19,6.16C155.52,227.23,155.41,227.35,155.26,227.36C155.26,227.36,155.26,227.36,155.26,227.36z
		 M406.72,219.56c0,0-0.01,0-0.01,0c-0.14-0.01-0.25-0.13-0.24-0.27l0.29-6.16c0.01-0.14,0.14-0.26,0.27-0.24
		c0.14,0.01,0.25,0.13,0.24,0.27l-0.29,6.16C406.97,219.45,406.86,219.56,406.72,219.56z M154.87,215.03
		c-0.14,0-0.25-0.11-0.26-0.25l-0.19-6.16c0-0.14,0.11-0.26,0.25-0.27c0.16,0,0.26,0.11,0.26,0.25l0.19,6.16
		C155.13,214.91,155.02,215.02,154.87,215.03C154.88,215.03,154.88,215.03,154.87,215.03z M407.29,207.23c0,0-0.01,0-0.01,0
		c-0.14-0.01-0.25-0.13-0.24-0.27l0.29-6.16c0.01-0.14,0.12-0.26,0.27-0.24c0.14,0.01,0.25,0.13,0.24,0.27l-0.29,6.16
		C407.54,207.13,407.43,207.23,407.29,207.23z M154.49,202.7c-0.14,0-0.25-0.11-0.26-0.25l-0.19-6.16c0-0.14,0.11-0.26,0.25-0.27
		c0.15,0,0.26,0.11,0.27,0.25l0.19,6.16C154.75,202.58,154.64,202.7,154.49,202.7C154.5,202.7,154.49,202.7,154.49,202.7z
		 M407.87,194.91c0,0-0.01,0-0.01,0c-0.14-0.01-0.25-0.13-0.24-0.27l0.29-6.16c0.01-0.14,0.15-0.25,0.27-0.24
		c0.14,0.01,0.25,0.13,0.24,0.27l-0.29,6.16C408.12,194.81,408,194.91,407.87,194.91z M154.11,190.37c-0.14,0-0.25-0.11-0.26-0.25
		l-0.19-6.16c0-0.14,0.11-0.26,0.25-0.26c0.14-0.02,0.26,0.11,0.26,0.25l0.19,6.16C154.37,190.25,154.26,190.37,154.11,190.37
		C154.11,190.37,154.11,190.37,154.11,190.37z M408.44,182.59c0,0-0.01,0-0.01,0c-0.14-0.01-0.25-0.13-0.24-0.27l0.29-6.16
		c0.01-0.14,0.12-0.25,0.27-0.24c0.14,0.01,0.25,0.13,0.24,0.27l-0.29,6.16C408.69,182.49,408.58,182.59,408.44,182.59z
		 M153.73,178.05c-0.14,0-0.25-0.11-0.26-0.25l-0.19-6.16c0-0.14,0.11-0.26,0.25-0.26c0.14,0,0.26,0.11,0.26,0.25l0.19,6.16
		C153.99,177.92,153.88,178.04,153.73,178.05C153.73,178.05,153.73,178.05,153.73,178.05z M409.01,170.27c0,0-0.01,0-0.01,0
		c-0.14-0.01-0.25-0.13-0.24-0.27l0.29-6.16c0.01-0.14,0.13-0.25,0.27-0.24c0.14,0.01,0.25,0.13,0.24,0.27l-0.29,6.16
		C409.26,170.17,409.15,170.27,409.01,170.27z M153.34,165.72c-0.14,0-0.25-0.11-0.26-0.25l-0.19-6.16c0-0.14,0.11-0.26,0.25-0.26
		c0.14,0,0.26,0.11,0.26,0.25l0.19,6.16C153.61,165.6,153.49,165.71,153.34,165.72C153.35,165.72,153.35,165.72,153.34,165.72z
		 M409.59,157.95c0,0-0.01,0-0.01,0c-0.14-0.01-0.25-0.13-0.24-0.27l0.29-6.16c0.01-0.14,0.13-0.25,0.27-0.24
		c0.14,0.01,0.25,0.13,0.24,0.27l-0.29,6.16C409.84,157.85,409.72,157.95,409.59,157.95z M152.96,153.39
		c-0.14,0-0.25-0.11-0.26-0.25l-0.19-6.16c0-0.14,0.11-0.26,0.25-0.26c0.15-0.01,0.26,0.11,0.27,0.25l0.19,6.16
		C153.22,153.27,153.11,153.39,152.96,153.39C152.97,153.39,152.97,153.39,152.96,153.39z M410.16,145.63c0,0-0.01,0-0.01,0
		c-0.14-0.01-0.25-0.13-0.24-0.27l0.29-6.16c0.01-0.14,0.12-0.26,0.27-0.24c0.14,0.01,0.25,0.13,0.24,0.27l-0.29,6.16
		C410.41,145.53,410.29,145.63,410.16,145.63z M152.58,141.06c-0.14,0-0.25-0.11-0.26-0.25l-0.19-6.16c0-0.14,0.11-0.26,0.25-0.26
		c0.14-0.01,0.26,0.11,0.26,0.25l0.19,6.16C152.84,140.94,152.73,141.06,152.58,141.06C152.59,141.06,152.58,141.06,152.58,141.06z
		 M410.73,133.31c0,0-0.01,0-0.01,0c-0.14-0.01-0.25-0.13-0.24-0.27l0.24-5.2h-0.43c-0.14,0-0.26-0.11-0.26-0.26
		c0-0.14,0.12-0.26,0.26-0.26h0.97l-0.27,5.73C410.98,133.21,410.87,133.31,410.73,133.31z M152.2,128.74
		c-0.14,0-0.25-0.11-0.26-0.25l-0.04-1.15h5.54c0.14,0,0.26,0.11,0.26,0.26c0,0.14-0.11,0.26-0.26,0.26h-5.01l0.02,0.62
		C152.46,128.61,152.35,128.73,152.2,128.74C152.2,128.74,152.2,128.74,152.2,128.74z M404.12,127.85h-6.17
		c-0.14,0-0.26-0.11-0.26-0.26c0-0.14,0.12-0.26,0.26-0.26h6.17c0.14,0,0.26,0.11,0.26,0.26
		C404.38,127.73,404.26,127.85,404.12,127.85z M391.79,127.85h-6.17c-0.14,0-0.26-0.11-0.26-0.26c0-0.14,0.12-0.26,0.26-0.26h6.17
		c0.14,0,0.26,0.11,0.26,0.26C392.05,127.73,391.93,127.85,391.79,127.85z M379.45,127.85h-6.17c-0.14,0-0.26-0.11-0.26-0.26
		c0-0.14,0.12-0.26,0.26-0.26h6.17c0.14,0,0.26,0.11,0.26,0.26C379.71,127.73,379.6,127.85,379.45,127.85z M367.12,127.85h-6.17
		c-0.14,0-0.26-0.11-0.26-0.26c0-0.14,0.12-0.26,0.26-0.26h6.17c0.14,0,0.26,0.11,0.26,0.26
		C367.38,127.73,367.26,127.85,367.12,127.85z M354.79,127.85h-6.17c-0.14,0-0.26-0.11-0.26-0.26c0-0.14,0.12-0.26,0.26-0.26h6.17
		c0.14,0,0.26,0.11,0.26,0.26C355.04,127.73,354.93,127.85,354.79,127.85z M342.45,127.85h-6.17c-0.14,0-0.26-0.11-0.26-0.26
		c0-0.14,0.12-0.26,0.26-0.26h6.17c0.14,0,0.26,0.11,0.26,0.26C342.71,127.73,342.6,127.85,342.45,127.85z M330.12,127.85h-6.17
		c-0.14,0-0.26-0.11-0.26-0.26c0-0.14,0.11-0.26,0.26-0.26h6.17c0.14,0,0.26,0.11,0.26,0.26
		C330.38,127.73,330.26,127.85,330.12,127.85z M317.79,127.85h-6.17c-0.14,0-0.26-0.11-0.26-0.26c0-0.14,0.11-0.26,0.26-0.26h6.17
		c0.14,0,0.26,0.11,0.26,0.26C318.04,127.73,317.93,127.85,317.79,127.85z M305.45,127.85h-6.17c-0.14,0-0.26-0.11-0.26-0.26
		c0-0.14,0.11-0.26,0.26-0.26h6.17c0.14,0,0.26,0.11,0.26,0.26C305.71,127.73,305.6,127.85,305.45,127.85z M293.12,127.85h-6.17
		c-0.14,0-0.26-0.11-0.26-0.26c0-0.14,0.11-0.26,0.26-0.26h6.17c0.14,0,0.26,0.11,0.26,0.26
		C293.38,127.73,293.26,127.85,293.12,127.85z M280.79,127.85h-6.17c-0.14,0-0.26-0.11-0.26-0.26c0-0.14,0.11-0.26,0.26-0.26h6.17
		c0.14,0,0.26,0.11,0.26,0.26C281.04,127.73,280.93,127.85,280.79,127.85z M268.45,127.85h-6.17c-0.14,0-0.26-0.11-0.26-0.26
		c0-0.14,0.11-0.26,0.26-0.26h6.17c0.14,0,0.26,0.11,0.26,0.26C268.71,127.73,268.59,127.85,268.45,127.85z M256.12,127.85h-6.17
		c-0.14,0-0.26-0.11-0.26-0.26c0-0.14,0.11-0.26,0.26-0.26h6.17c0.14,0,0.26,0.11,0.26,0.26
		C256.38,127.73,256.26,127.85,256.12,127.85z M243.79,127.85h-6.17c-0.14,0-0.26-0.11-0.26-0.26c0-0.14,0.11-0.26,0.26-0.26h6.17
		c0.14,0,0.26,0.11,0.26,0.26C244.04,127.73,243.93,127.85,243.79,127.85z M231.45,127.85h-6.17c-0.14,0-0.26-0.11-0.26-0.26
		c0-0.14,0.11-0.26,0.26-0.26h6.17c0.14,0,0.26,0.11,0.26,0.26C231.71,127.73,231.59,127.85,231.45,127.85z M219.12,127.85h-6.17
		c-0.14,0-0.26-0.11-0.26-0.26c0-0.14,0.11-0.26,0.26-0.26h6.17c0.14,0,0.26,0.11,0.26,0.26
		C219.38,127.73,219.26,127.85,219.12,127.85z M206.79,127.85h-6.17c-0.14,0-0.26-0.11-0.26-0.26c0-0.14,0.11-0.26,0.26-0.26h6.17
		c0.14,0,0.26,0.11,0.26,0.26C207.04,127.73,206.93,127.85,206.79,127.85z M194.45,127.85h-6.17c-0.14,0-0.26-0.11-0.26-0.26
		c0-0.14,0.11-0.26,0.26-0.26h6.17c0.14,0,0.26,0.11,0.26,0.26C194.71,127.73,194.59,127.85,194.45,127.85z M182.12,127.85h-6.17
		c-0.14,0-0.26-0.11-0.26-0.26c0-0.14,0.11-0.26,0.26-0.26h6.17c0.14,0,0.26,0.11,0.26,0.26
		C182.37,127.73,182.26,127.85,182.12,127.85z M169.78,127.85h-6.17c-0.14,0-0.26-0.11-0.26-0.26c0-0.14,0.11-0.26,0.26-0.26h6.17
		c0.14,0,0.26,0.11,0.26,0.26C170.04,127.73,169.93,127.85,169.78,127.85z"/>
</g>
<linearGradient id="SVGID_3_" gradientUnits="userSpaceOnUse" x1="305.3185" y1="297.6621" x2="308.4019" y2="151.7147">
	<stop  offset="0" style="stop-color:#6EA7E8"/>
	<stop  offset="1" style="stop-color:#9AD2FF"/>
</linearGradient>
<path class="st8" d="M273.31,153.25c0,0,3.65,37,2.08,49.59l-9.02,95.59h77.86c0,0-4.37-81.45-4.37-87.62
	c0-6.17-1.28-57.56-1.28-57.56l-12.21-6.17l-30.71-0.39L273.31,153.25z"/>
<g>
	<path class="st9" d="M294.38,147.27l-15.37,4.3c0,0,6.15,30.72,9.82,34.39c3.67,3.67-0.62,6.42,2.46,9.51
		c3.08,3.08,20.17,26.25,20.17,26.25L294.38,147.27z"/>
	<path class="st9" d="M327.14,148.28l-15.67,73.44c0,0,16.66-29.45,18.09-30.88c1.43-1.43,0-7.45,0-10.28s8.86-27.4,8.86-27.4
		S330.33,148.28,327.14,148.28z"/>
</g>
<g>
	<path class="st10" d="M295.67,146.69l-16.44,1.67c0,0,5.95,30.25,9.62,33.92c3.67,3.67-0.62,6.42,2.46,9.51
		c3.08,3.08,20.17,29.93,20.17,29.93L295.67,146.69z"/>
	<path class="st10" d="M326.37,147.08l-14.9,74.64c0,0,16.66-33.13,18.09-34.56c1.43-1.43,0-7.45,0-10.28s9.02-26.21,9.02-26.21
		S329.56,147.08,326.37,147.08z"/>
</g>
<polygon class="st11" points="309.29,298.42 311.47,221.72 311.02,298.42 "/>
<rect x="258.92" y="308.7" class="st12" width="58.58" height="6.17"/>
<polygon class="st13" points="312.5,343.35 263.93,343.35 262.39,314.87 314.04,314.87 "/>
<path class="st14" d="M314.04,314.87h-51.65l1.54,28.48h6.39c0.63-4.43,1.88-9.15,4.28-12.94c4.33-6.85,25.7-9.54,39.17-10.57
	L314.04,314.87z"/>
<path class="st3" d="M356.31,358.76H224.23l0,0c0-8.51,6.9-15.42,15.42-15.42h101.24C349.4,343.35,356.31,350.25,356.31,358.76
	L356.31,358.76z"/>
<path class="st15" d="M213.87,157.09l-4.49-16.06l-19.72,5.06c0,0,2.81,8.75,4.77,9.95c1.44,0.88,5.8,3.55,7.99,4.89l0,0
	l17.63,34.97l12.68-15.67L213.87,157.09z"/>
<path class="st16" d="M307.1,67.13c0,0,15.03-1.84,21.46,1.23c6.42,3.06,19.01,15.44,15.67,39.47c0,0,2.7,0.86,3.47,4.53
	c0.77,3.68,0.84,10.23-5.52,16.3c-6.36,6.07-17.09,5.39-22.61,5.39s-21.07-4.66-25.05-13.24C290.52,112.23,307.1,67.13,307.1,67.13z
	"/>
<path class="st17" d="M314.38,70.62c-4.03-0.38-7.39,1.47-10.09,4.51c-3.41,10.04-8.87,27.21-10.13,37.81
	c0.56,4.26,1.96,8.49,3.99,11.84c0.35,0.58,0.72,1.14,1.11,1.67c5.33,4.19,13.17,6.72,17.98,7.41c14.98-2.01,19.2-15.85,18.83-31.1
	c-0.1-4.11,2.84-16.9-3.52-25.17C328.27,72.03,320.91,69.98,314.38,70.62z"/>
<path class="st18" d="M299.39,123.18c0,0,0.77,10.41,0,15.16c-0.77,4.75-3.73,8.35-3.73,8.35l15.8,75.03l14.9-74.64
	c0,0-3.7-2.27-4.75-8.74c-1.05-6.47-1.03-23.13-1.03-23.13L299.39,123.18z"/>
<path class="st19" d="M311.47,221.72l11.6-58.11c-8.85,0.96-17.62-0.15-24.15-1.49L311.47,221.72z"/>
<path class="st20" d="M323.07,163.62c-0.08,0.01-0.16,0.02-0.25,0.03c-2.9,11.87-9.54,38.19-11.8,40.45
	c-2.17,2.17-8.8-26.82-12.09-41.97c0,0-0.01,0-0.01,0l12.55,59.6L323.07,163.62z"/>
<path class="st21" d="M302.73,121.93c2.27,8.84,7.77,17.15,18.24,14.39c0.13-0.03,0.25-0.07,0.37-0.11c-0.77-7.39-0.75-21-0.75-21
	L302.73,121.93z"/>
<path class="st18" d="M317.25,72.69c0,0,9.12-1.41,14.13,5.91c5.01,7.32,2.7,19.66,2.7,22.74c0,3.08,1.48,25.44-13.11,28.91
	c-14.58,3.47-19.53-12.46-19.53-22.1S305.03,73.9,317.25,72.69z"/>
<path class="st21" d="M307.17,81.29c-0.51,1.11-0.99,2.29-1.43,3.52c5.05-1.52,10.18-2.7,15.3-3.51
	c2.06,7.13,6.41,12.02,13.56,12.02c0.07-2.85-0.08-6.05-0.8-9.05C325.43,80.85,315.94,75.95,307.17,81.29z"/>
<path class="st18" d="M210.93,142.02c-0.18-0.22-14.77-14.11-17.66-13.24c-4.8,1.25,5.87,9.22,7.03,10.71
	c0.58,0.75,1.09,1.68,1.54,2.57c-0.38,0.11-0.73,0.21-1.05,0.28c-2.75,0.66-10.08,2.03-11.13,3.74c0,0-0.2,9.61,2.33,9.66
	c2.52,0.05,5.08-0.87,7.79-0.6c1.35,0.14,2.75-0.53,3.8-1.23c0.17-0.11,0.33-0.23,0.48-0.34c-0.35,0.59-0.44,1.25-0.08,1.98
	c1.29,2.63,10.25-1.91,10.63-3.58C214.99,150.29,213,144.56,210.93,142.02z M208.88,150.71c-0.82,0.2-2.4,0.77-3.6,1.62
	c-0.35-0.91-2.06-5.53-1.78-7.37c0,0,0,0,0,0c1.25-1.32,3.97-1.36,5.3-0.79l0,0c0.18,0.16,0.31,0.38,0.37,0.65
	C209.6,146.57,210.51,150.32,208.88,150.71z"/>
<path class="st10" d="M209.85,178.17c0,0,20.81,53.45,28.78,57.56s37.16-40.34,37.16-40.34s1.13-42.14-2.47-42.14
	c-3.6,0-18.39,17.59-22.64,28.17c-4.33,10.76-4.18,16.2-9.99,5.75c-5.94-10.68-16.38-25.04-16.38-25.04
	C218.3,168.12,209.85,178.17,209.85,178.17z"/>
<path class="st22" d="M328.55,68.45c0,0-5.14-0.64-8.22,1.8c-3.08,2.44-9.89,3.6-13.88,22.48c-3.98,18.89-0.77,21.07-0.77,21.07
	s4.23,8.74-1.22,15.42c-5.46,6.68-16.16,4.16-22.16,0.64c-8.72-5.11-7.17-22.84-3.5-34.43c0.51-1.62,0.77-2.58,1.36-3.93
	c1.15-2.61,1.53-5.61,3.2-8.35c5.4-8.88,15.22-16.99,32.59-16.55C315.96,66.59,323.8,66.14,328.55,68.45z"/>
<g>
	<path class="st17" d="M280.55,90.06c-1.08,3.25-0.93,2.78-1.75,5.37c-0.17,0.55-0.34,1.12-0.51,1.69c3.42-1.97,4.09-2.52,7.99-4.51
		c7.17-3.65,14.83-6.59,22.65-8.71c0.16-0.42,0.31-0.83,0.47-1.22C299.38,83.62,289.42,85.43,280.55,90.06z"/>
</g>
<path class="st1" d="M282.74,83.48c19.06-9.97,31.87-10.87,53.72-9.44v5.26c-18.34,0.07-36.47,5.05-51.7,12.82
	c-4.1,2.1-6.29,3.53-6.31,3.54L282.74,83.48z"/>
<ellipse class="st13" cx="335.78" cy="77.32" rx="14.44" ry="15.44"/>
<ellipse class="st2" cx="336.22" cy="77.32" rx="14" ry="15.44"/>
<g>
	<ellipse class="st23" cx="335.78" cy="77.32" rx="14.44" ry="15.44"/>
	<ellipse class="st4" cx="336.22" cy="77.32" rx="14" ry="15.44"/>
	<path class="st2" d="M330.88,74.37c0-5.13,2.27-9.68,5.76-12.48c-0.14,0-0.28-0.01-0.42-0.01c-7.73,0-14,6.91-14,15.44
		c0,8.53,6.27,15.44,14,15.44c3.08,0,5.92-1.1,8.23-2.95C336.92,89.56,330.88,82.74,330.88,74.37z"/>
</g>
<path class="st13" d="M338.53,76.66c0,1.27-0.93,2.29-2.08,2.29c-1.15,0-2.08-1.03-2.08-2.29c0-1.27,0.93-2.29,2.08-2.29
	C337.6,74.37,338.53,75.4,338.53,76.66z"/>
<g>
	<path class="st24" d="M174.6,147.34c-0.19,0-0.38-0.06-0.55-0.17c-0.44-0.3-0.55-0.9-0.25-1.34l36.61-53.05
		c0.3-0.44,0.9-0.55,1.34-0.25s0.55,0.9,0.25,1.34l-36.61,53.05C175.21,147.19,174.91,147.34,174.6,147.34z"/>
</g>
<g>
	<path class="st24" d="M111.78,214.21c-0.24,0-0.47-0.09-0.66-0.26c-0.39-0.36-0.41-0.97-0.05-1.36l60.77-64.97
		c0.36-0.39,0.97-0.41,1.36-0.05c0.39,0.36,0.41,0.97,0.05,1.36l-60.77,64.97C112.3,214.11,112.04,214.21,111.78,214.21z"/>
</g>
<g>
	<path class="st24" d="M172.55,149.24c-0.19,0-0.39-0.06-0.56-0.18l-48.88-35.03c-0.43-0.31-0.53-0.91-0.22-1.35
		c0.31-0.43,0.91-0.53,1.35-0.22l48.88,35.03c0.43,0.31,0.53,0.91,0.22,1.35C173.15,149.1,172.85,149.24,172.55,149.24z"/>
</g>
<g>
	<path class="st24" d="M198.62,261.04c-0.44,0-0.83-0.3-0.94-0.75L171.61,148.5c-0.12-0.52,0.2-1.04,0.72-1.16
		c0.52-0.12,1.04,0.2,1.16,0.72l26.07,111.79c0.12,0.52-0.2,1.04-0.72,1.16C198.77,261.03,198.69,261.04,198.62,261.04z"/>
</g>
<path class="st24" d="M183.4,148.28c0,5.99-4.86,10.85-10.85,10.85c-5.99,0-10.85-4.86-10.85-10.85c0-5.99,4.86-10.85,10.85-10.85
	C178.54,137.43,183.4,142.28,183.4,148.28z"/>
<path class="st10" d="M179.47,147.74c0,3.82-3.1,6.92-6.92,6.92c-3.82,0-6.92-3.1-6.92-6.92c0-3.82,3.1-6.92,6.92-6.92
	C176.37,140.83,179.47,143.92,179.47,147.74z"/>
<g>
	<path class="st10" d="M107.44,137.72H89.3c-10.54,0-19.09-8.55-19.09-19.09v-10.77c0-10.54,8.55-19.09,19.09-19.09h18.14
		c10.54,0,19.09,8.55,19.09,19.09v10.77C126.53,129.18,117.98,137.72,107.44,137.72z"/>
	<path class="st24" d="M123.73,89.29c0.33,0.67,0.52,1.43,0.52,2.23v38.91c0,2.77-2.25,5.02-5.02,5.02H72.95
		c-0.8,0-1.55-0.19-2.23-0.52c0.82,1.66,2.53,2.8,4.5,2.8h46.27c2.77,0,5.02-2.25,5.02-5.02V93.79
		C126.53,91.82,125.39,90.11,123.73,89.29z"/>
</g>
<g>
	<path class="st10" d="M107.44,234.11H89.3c-10.54,0-19.09-8.55-19.09-19.09v-10.77c0-10.54,8.55-19.09,19.09-19.09h18.14
		c10.54,0,19.09,8.55,19.09,19.09v10.77C126.53,225.56,117.98,234.11,107.44,234.11z"/>
	<path class="st24" d="M123.73,185.68c0.33,0.67,0.52,1.43,0.52,2.23v38.91c0,2.77-2.25,5.02-5.02,5.02H72.95
		c-0.8,0-1.55-0.19-2.23-0.52c0.82,1.66,2.53,2.8,4.5,2.8h46.27c2.77,0,5.02-2.25,5.02-5.02v-38.91
		C126.53,188.2,125.39,186.5,123.73,185.68z"/>
</g>
<g>
	<path class="st10" d="M196.12,101.8h25.57c10.68,0,19.34-8.66,19.34-19.34V72.18c0-10.68-8.66-19.34-19.34-19.34h-25.57
		c-10.68,0-19.34,8.66-19.34,19.34v10.27C176.78,93.14,185.44,101.8,196.12,101.8z"/>
	<path class="st24" d="M179.97,53.36c-0.38,0.67-0.59,1.43-0.59,2.23V94.5c0,2.77,2.57,5.02,5.73,5.02h52.8
		c0.91,0,1.77-0.19,2.54-0.52c-0.94,1.66-2.88,2.8-5.14,2.8h-52.8c-3.17,0-5.73-2.25-5.73-5.02V57.86
		C176.78,55.89,178.08,54.18,179.97,53.36z"/>
</g>
<g>
	<path class="st10" d="M189.37,243.21h25.57c10.68,0,19.34,8.66,19.34,19.34v10.27c0,10.68-8.66,19.34-19.34,19.34h-25.57
		c-10.68,0-19.34-8.66-19.34-19.34v-10.27C170.03,251.87,178.69,243.21,189.37,243.21z"/>
	<path class="st24" d="M173.22,291.65c-0.38-0.67-0.59-1.43-0.59-2.23v-38.91c0-2.77,2.57-5.02,5.73-5.02h52.8
		c0.91,0,1.77,0.19,2.54,0.52c-0.94-1.66-2.88-2.8-5.14-2.8h-52.8c-3.17,0-5.73,2.25-5.73,5.02v38.91
		C170.03,289.12,171.33,290.83,173.22,291.65z"/>
</g>
<g>
	<path class="st25" d="M90.59,103.44c0,0.92-0.74,1.66-1.66,1.66c-0.92,0-1.66-0.74-1.66-1.66c0-0.92,0.74-1.66,1.66-1.66
		C89.85,101.78,90.59,102.53,90.59,103.44z"/>
	<path class="st25" d="M109.23,98.77c0,0.58-0.47,1.04-1.04,1.04c-0.58,0-1.04-0.47-1.04-1.04c0-0.58,0.47-1.04,1.04-1.04
		C108.76,97.73,109.23,98.2,109.23,98.77z"/>
	<path class="st25" d="M97.28,128.76c-7.99,0-14.49-6.5-14.49-14.48c0-3.6,1.32-7.04,3.72-9.69l0.36-0.4l0.27,0.47
		c0.16,0.28,0.39,0.53,0.66,0.71l0.38,0.25l-0.3,0.34c-2.04,2.29-3.16,5.24-3.16,8.33c0,6.92,5.63,12.55,12.55,12.55
		c6.57,0,12-5.05,12.51-11.56c-2.41-0.47-4.19-2.6-4.19-5.1v-9.22l1.12-1.71l0.34,0.43c0.19,0.24,0.46,0.42,0.75,0.5l0.52,0.14
		l-0.8,1.23v8.64c0,1.8,1.46,3.26,3.26,3.26c1.8,0,3.26-1.46,3.26-3.26v-8.61l-0.93-1.25l0.52-0.17c0.29-0.1,0.55-0.29,0.72-0.54
		l0.31-0.44l1.31,1.76v9.25c0,2.53-1.81,4.67-4.26,5.11C111.21,122.87,104.92,128.76,97.28,128.76z"/>
	<path class="st25" d="M114.24,98.77c0,0.58-0.47,1.04-1.04,1.04c-0.58,0-1.04-0.47-1.04-1.04c0-0.58,0.47-1.04,1.04-1.04
		C113.77,97.73,114.24,98.2,114.24,98.77z"/>
	<polygon class="st25" points="103.26,111.34 99.33,111.34 99.33,107.41 95,107.41 95,111.34 91.07,111.34 91.07,115.67 95,115.67 
		95,119.6 99.33,119.6 99.33,115.67 103.26,115.67 	"/>
</g>
<g>
	<g>
		<path class="st25" d="M218.61,78.05h-1.25l-2.6-3.58l-1.96,8.09l-1.51-14.03l-4.06,9.14l-1.78-3.24l-2.28,4.08l-3.1-3.79l-1.4,6.9
			l-1.31-11.86l-4.46,8.05h-10.72c-0.27,0-0.49,0.22-0.49,0.49l0,0c0,0.27,0.22,0.49,0.49,0.49h11.77l2.43-4.39l1.86,16.81
			l2.7-13.35l2.49,3.04l2.01-3.6l1.94,3.53l3.01-6.78l1.84,17.08l3.25-13.39l0.94,1.3h2.85C219.01,78.69,218.8,78.37,218.61,78.05z"
			/>
		<path class="st26" d="M228.1,71.49c0,0,1.67-2.31,4.96-2.31c2.93,0,4.96,2.37,4.96,5.13c0,3.19-2.76,6.97-9.91,10.26
			c-7.16-3.29-9.91-7.07-9.91-10.26c0-2.76,2.02-5.13,4.96-5.13C226.43,69.18,228.1,71.49,228.1,71.49z"/>
	</g>
</g>
<g>
	<path class="st27" d="M213.96,275.69l-25.5-3.26c-1.62-0.21-2.77-1.69-2.56-3.31l1.73-13.48c0.21-1.62,1.69-2.77,3.31-2.56
		l25.5,3.26c1.62,0.21,2.77,1.69,2.56,3.31l-1.73,13.48C217.07,274.75,215.58,275.9,213.96,275.69z"/>
	<path class="st25" d="M198.4,258.26l-0.7-1.57c-0.2-0.45-0.65-0.75-1.15-0.75h-11.77c-0.69,0-1.26,0.56-1.26,1.26v7.99h0.02v15.06
		c0,0.69,0.56,1.26,1.26,1.26h34.72c0.69,0,1.26-0.56,1.26-1.26v-19.99c0-0.69-0.56-1.26-1.26-1.26h-19.98
		C199.05,259,198.6,258.71,198.4,258.26z"/>
	<path class="st2" d="M209.74,270.51c0,3.83-3.11,6.94-6.94,6.94c-3.83,0-6.94-3.11-6.94-6.94c0-3.83,3.11-6.94,6.94-6.94
		C206.64,263.57,209.74,266.68,209.74,270.51z"/>
	<polygon class="st26" points="208.21,268.61 204.73,268.61 204.73,265.13 200.89,265.13 200.89,268.61 197.4,268.61 197.4,272.46 
		200.89,272.46 200.89,275.94 204.73,275.94 204.73,272.46 208.21,272.46 	"/>
</g>
<g>
	<circle class="st1" cx="95.63" cy="202.03" r="3.45"/>
	
		<rect x="100.88" y="206.59" transform="matrix(-1 -1.224647e-16 1.224647e-16 -1 206.7477 417.9817)" class="st25" width="4.99" height="4.81"/>
	
		<rect x="101.62" y="211.67" transform="matrix(-1 -1.224647e-16 1.224647e-16 -1 206.7478 424.6984)" class="st25" width="3.52" height="1.35"/>
	<path class="st25" d="M100.32,202.6c0-1.09-0.33-2.1-0.9-2.94v-3.32c0.8,0,1.44-0.65,1.44-1.44v-2.63h5.01v2.63
		c0,0.8,0.65,1.44,1.44,1.44v8.53c0,0.74-0.6,1.35-1.35,1.35h-5.2c-0.57,0-1.05-0.35-1.25-0.84
		C100.03,204.57,100.32,203.62,100.32,202.6z"/>
	
		<rect x="99.67" y="190.5" transform="matrix(-1 -1.224647e-16 1.224647e-16 -1 206.7477 382.7692)" class="st25" width="7.41" height="1.77"/>
	<path class="st25" d="M89.83,202.1c-0.02,0.16-0.02,0.33-0.02,0.5c0,2.52,1.78,4.63,4.16,5.14c-0.73,0.52-1.31,1.23-1.64,2.12
		c-0.58,1.54-0.3,3.27,0.4,4.72c0.84,1.73,2.28,3.12,3.93,4.08l-0.62,2.2C87.4,218.41,83.73,208.84,89.83,202.1z"/>
	
		<rect x="92.02" y="218.59" transform="matrix(-1 -1.224647e-16 1.224647e-16 -1 191.2526 442.0286)" class="st25" width="7.22" height="4.85"/>
	<path class="st12" d="M85.99,226.02h26.8v-0.54c0-1.13-0.91-2.04-2.04-2.04H88.03c-1.13,0-2.04,0.91-2.04,2.04V226.02z"/>
	
		<rect x="96.52" y="214.69" transform="matrix(-1 -1.224647e-16 1.224647e-16 -1 206.8282 431.8105)" class="st28" width="13.79" height="2.42"/>
</g>
<path class="st10" d="M338.42,153.17c0,0-2.65,29.37,1.35,51.74c1,5.62,16.52,8.11,25,14.5c14.13,10.64,23.98,25,26.49,30.7
	c5.73-2.58,5.69-28.38,2.56-38.62C390.41,204.67,338.42,153.17,338.42,153.17z"/>
<polygon class="st19" points="420.94,190.17 366.29,183.57 332.05,248.8 376.38,248.8 "/>
<path class="st29" d="M376.38,248.8l44.57-58.62l-54.66-6.61l-0.98,1.86c8.55,2.24,25.08,7.48,27.53,15.07
	c2.62,8.11-16.46,36.53-24.73,48.3H376.38z"/>
<polygon class="st30" points="364.27,180.6 329.44,247.63 332.05,248.8 366.29,183.57 420.94,190.17 417.61,187.57 "/>
<g>
	<polygon class="st18" points="461.38,179.15 464.44,190.84 474.28,187.03 472.51,176.68 	"/>
	<g>
		<path class="st18" d="M417.43,152.66c-0.85-1.21-6.61-8.6-7.59-7.91c-0.98,0.69,2.56,5.66,3.09,6.42c0,0-2.02-0.16-3.02,2.11
			c-0.67,1.52,3.53,8.78,5.3,11.66c1.54-0.48,3.81-2.32,3.73-3.91C418.94,158.04,418.07,153.59,417.43,152.66z"/>
		<path class="st21" d="M469.98,177.24l-8.6,1.91l1.12,4.26c2.15-0.38,4.4-1.55,5.75-3.86
			C468.58,178.97,469.26,178.16,469.98,177.24z"/>
		<polygon class="st18" points="458.5,354.37 457.32,361.06 452.05,361.44 452.95,349.7 		"/>
		<path class="st31" d="M458.24,360.03c0,0-4.87,0.09-5.94-0.76c-1.07-0.84-2.2,0.79-3.92,2.97c-1.72,2.18-8.16,1.92-8.94,3.64
			c-0.59,1.3,18.5,0.92,19.46,0.89C459.58,366.75,458.24,360.03,458.24,360.03z"/>
		<polygon class="st18" points="472.81,353.32 471.63,360.02 466.36,360.39 467.26,348.65 		"/>
		<path class="st31" d="M472.55,358.98c0,0-4.87,0.09-5.94-0.75c-1.07-0.84-2.2,0.79-3.92,2.97c-1.72,2.18-7.8,2.5-8.66,4.18
			c-0.86,1.68,18.34,1.41,18.76,0.88C473.21,365.73,472.55,358.98,472.55,358.98z"/>
		<path class="st32" d="M461.65,262.19l0.55,47.93l3.73,46.61l6.99,1.19c0,0,5.82-82.35,11.85-91.44c6.02-9.09-0.8-24.09-0.83-24.12
			c0,0,0,0,0,0L461.65,262.19z"/>
		<path class="st33" d="M481.48,264.85c2.59-3.91,4.51-9.1,4.03-15.01c-0.16-1.91-3.23-4.03-3.61-5.65l-20.24,18l0.55,47.93
			l2.08,25.96c3.73-22.36,10.67-54.48,12.06-63.67C476.93,271.59,478.91,268.73,481.48,264.85z"/>
		<path class="st30" d="M453.61,239.8c0,0-3.55,43.74-3.84,58.36c-0.29,14.94,1.58,59.74,1.58,59.74l8.23,0.04
			c0,0,12.23-72.88,14.27-86.51c0,0-1.17,1.96,4.86-7.13c6.02-9.09,1.61-21.89,1.58-21.92c0,0-10.71,4-10.71,4L453.61,239.8z"/>
		<path class="st34" d="M490.73,218.57l-7.6,12.75l3.31,7.59c0,0,20.17-15.86,18.43-20.21c-1.46-3.66-21.61-25.3-27.06-31.24
			c-0.99-1.08-2.51-1.46-3.89-0.98l-9.35,3.24C464.58,189.72,491.55,215.76,490.73,218.57z"/>
		<g>
			<path class="st35" d="M456.39,186.34c0,0-2.4,61.53-8.54,74.01c0,0,27.86-4.11,40.65-4.1c0,0-0.3-52.12-6.48-63.68
				C475.83,181,462.4,183.13,456.39,186.34z"/>
		</g>
		<path class="st36" d="M470.47,209.02c5.96-3.17,7.88-7.55,7.99-13.12c0.08-4.05-13.52-1.93-22.46-1.38
			c-0.16,3.16-0.38,7.06-0.66,11.39C458.77,209.68,466.16,211.31,470.47,209.02z"/>
		<path class="st35" d="M424.93,188.93c0,0,19.29,16.53,34.66,15.91c15.38-0.62,17.39-4.32,18.71-8.42
			c1.32-4.1-7.44-9.72-16.23-11.41c-8.79-1.69-24.46-1.52-26.87-3.74s-14.78-18.91-15.82-21.81l-7.46,3.17L424.93,188.93z"/>
		<path class="st18" d="M465.38,160.11c0,0-2.61,1.29-4.83,4.59c-2.22,3.3-4.61,5.06-4.61,5.06l1.04,1.68c0,0-2.38,1.72-2.15,4.32
			c0.5,5.75,9.39,6.76,13.81,3.42c1.2-0.91,4.93-2.04,6.15-4.09C478.07,169.62,477.11,161.18,465.38,160.11z"/>
		<path class="st22" d="M469.74,172.4c0,0-2.96-5.47-1.56-9.33c0,0-3.23-0.06-5.83-1.53c-4.68-2.65,1.01-12.5,8.04-5.47
			c0,0-0.6-4.76,4.38-3.91c4.98,0.85,6.8,2.84,5.9,7.57c-0.9,4.73,1.17,2.64,2.68,5.4c1.52,2.76-6.47,12.69-10.21,13.05
			c-3.74,0.37-3.74,0.37-3.74,0.37s5.33-2.99,3.84-5.25C471.75,171.03,469.74,172.4,469.74,172.4z"/>
	</g>
</g>
<path class="st18" d="M354.42,226.28c0.99-0.79,9.32,4.38,14.1,7.47c0.01-0.07,0.02-0.13,0.03-0.19c-4.5-3.34-12.37-7.32-10.57-8.47
	c0.92-0.59,20.69,7.38,20.69,7.38c2.08,0.94,2.18,1.03,4.32,1.98c-0.51-1.24-5.68-9.66-2.19-9.25l11.55,15.1
	c1.96,3.21,1.89,5.16,1.4,6.83c-0.6,2.06-3.49,7.59-8.21,8.7c-4.54,1.07-16.86-5.89-18.79-7.69c-2.07-1.78-16.2-14.13-13.94-17.57
	c0,0,11.78,11.5,13.03,10.07c0.07-0.33-11.64-8.11-12.56-11.15c-0.66-2.18,9.59,4.46,14.08,7.78
	C363.32,233.97,353.73,226.82,354.42,226.28z"/>
<g>
	<path class="st24" d="M128.61,366.58h-13.62c-14.17,0-25.66-11.49-25.66-25.66v-69.48c0-14.17,11.49-25.66,25.66-25.66h13.62
		c14.17,0,25.66,11.49,25.66,25.66v69.48C154.27,355.09,142.78,366.58,128.61,366.58z"/>
	<path class="st37" d="M139.93,245.78h-1.84c7.92,0,14.35,6.42,14.35,14.35v92.11c0,7.92-6.42,14.35-14.35,14.35h1.84
		c7.92,0,14.35-6.42,14.35-14.35v-92.11C154.27,252.21,147.85,245.78,139.93,245.78z"/>
	<path class="st38" d="M91.17,340.53v-68.7c0-13.37,10.84-24.2,24.2-24.2h12.85c13.37,0,24.2,10.84,24.2,24.2v68.7
		c0,13.37-10.84,24.2-24.2,24.2h-12.85C102.01,364.74,91.17,353.9,91.17,340.53z"/>
	<g>
		<path class="st12" d="M128.43,254.05h-12.21c-0.37,0-0.67-0.3-0.67-0.67c0-0.37,0.3-0.67,0.67-0.67h12.21
			c0.37,0,0.67,0.3,0.67,0.67C129.1,253.75,128.8,254.05,128.43,254.05z"/>
	</g>
	<g>
		<path class="st12" d="M129.67,258.53h-14.68c-0.41,0-0.74-0.33-0.74-0.74c0-0.41,0.33-0.74,0.74-0.74h14.68
			c0.41,0,0.74,0.33,0.74,0.74C130.4,258.2,130.07,258.53,129.67,258.53z"/>
	</g>
	<path class="st12" d="M110.9,257.79c0,0.56-0.45,1.01-1.01,1.01c-0.56,0-1.01-0.45-1.01-1.01c0-0.56,0.45-1.01,1.01-1.01
		C110.45,256.78,110.9,257.23,110.9,257.79z"/>
	<circle class="st39" cx="121.8" cy="356.86" r="5.53"/>
	<circle class="st40" cx="120.89" cy="356.86" r="5.53"/>
	<path class="st3" d="M137.6,348.15h-31.83c-6.18,0-11.19-5.01-11.19-11.19v-58.04c0-6.18,5.01-11.19,11.19-11.19h31.83
		c6.18,0,11.19,5.01,11.19,11.19v58.04C148.79,343.14,143.78,348.15,137.6,348.15z"/>
	<path class="st28" d="M95.82,340.58V275.3c0-3.38,2.74-6.13,6.13-6.13h39.49c3.38,0,6.13,2.74,6.13,6.13v65.28
		c0,3.38-2.74,6.13-6.13,6.13h-39.49C98.56,346.71,95.82,343.97,95.82,340.58z"/>
	<path class="st10" d="M146.07,269.17H97.3c-0.82,0-1.49,0.78-1.49,1.75v11.22h51.75v-11.22
		C147.56,269.96,146.89,269.17,146.07,269.17z"/>
	<g>
		<rect x="107.9" y="284.53" class="st41" width="29.42" height="1.98"/>
	</g>
	<polygon class="st41" points="100.97,285.52 103.75,287.4 103.75,283.64 	"/>
	<polygon class="st41" points="142.22,285.52 139.44,287.4 139.44,283.64 	"/>
	<path class="st1" d="M112.59,278.54H99.8c-1.32,0-2.39-1.07-2.39-2.39v-1.27c0-1.32,1.07-2.39,2.39-2.39h12.78
		c1.32,0,2.39,1.07,2.39,2.39v1.27C114.98,277.47,113.91,278.54,112.59,278.54z"/>
	<path class="st41" d="M142.8,278.54h-1.17c-1.22,0-2.2-0.99-2.2-2.2v-1.65c0-1.22,0.99-2.2,2.2-2.2h1.17c1.22,0,2.2,0.99,2.2,2.2
		v1.65C145.01,277.56,144.02,278.54,142.8,278.54z"/>
	<rect x="141.77" y="273.48" class="st28" width="0.89" height="3.93"/>
	
		<rect x="141.7" y="273.77" transform="matrix(6.123234e-17 -1 1 6.123234e-17 -133.2239 417.6635)" class="st28" width="1.04" height="3.35"/>
	<rect x="98.4" y="294.5" class="st42" width="5.72" height="49.49"/>
	<rect x="105.27" y="294.5" class="st42" width="5.72" height="49.49"/>
	<rect x="112.19" y="294.5" class="st42" width="5.72" height="49.49"/>
	<rect x="119.11" y="294.5" class="st42" width="5.72" height="49.49"/>
	<rect x="126.03" y="294.5" class="st42" width="5.72" height="49.49"/>
	<rect x="132.95" y="294.5" class="st42" width="5.72" height="49.49"/>
	<rect x="139.87" y="294.5" class="st42" width="5.72" height="49.49"/>
	<rect x="98.4" y="288.82" class="st41" width="5.72" height="3.76"/>
	<rect x="105.27" y="288.82" class="st41" width="5.72" height="3.76"/>
	<rect x="112.19" y="288.82" class="st41" width="5.72" height="3.76"/>
	<rect x="119.11" y="288.82" class="st41" width="5.72" height="3.76"/>
	<rect x="126.03" y="288.82" class="st41" width="5.72" height="3.76"/>
	<rect x="132.95" y="288.82" class="st26" width="5.72" height="3.76"/>
	<rect x="139.87" y="288.82" class="st26" width="5.72" height="3.76"/>
	<rect x="97.41" y="300.2" class="st28" width="48.76" height="1.23"/>
	<rect x="97.41" y="307.58" class="st28" width="48.76" height="1.23"/>
	<rect x="97.41" y="314.97" class="st28" width="48.76" height="1.23"/>
	<rect x="97.41" y="322.36" class="st28" width="48.76" height="1.23"/>
	<rect x="97.41" y="329.74" class="st28" width="48.76" height="1.23"/>
	<rect x="97.31" y="337.13" class="st28" width="48.76" height="1.23"/>
	<path class="st43" d="M121.04,309.27l-4.7-2.02c0.17,0.2,6.05,7.4,5.88,7.2c1.19-2.66,3.81-8.54,5.02-11.27L121.04,309.27z"/>
</g>
</svg>
