<?xml version="1.0" encoding="utf-8"?>
<!-- Generator: Adobe Illustrator 23.1.0, SVG Export Plug-In . SVG Version: 6.00 Build 0)  -->
<svg version="1.1" id="Layer_1" xmlns="http://www.w3.org/2000/svg" xmlns:xlink="http://www.w3.org/1999/xlink" x="0px" y="0px"
	 viewBox="0 0 200 200" style="enable-background:new 0 0 200 200;" xml:space="preserve">
<style type="text/css">
	.st0{fill:#C9D6F2;}
	.st1{fill:#ACBFE2;}
	.st2{fill:#7585F8;}
	.st3{fill:#B5C2E6;}
	.st4{fill:#A1B3DB;}
	.st5{fill:#465A65;}
	.st6{fill:#36474F;}
	.st7{fill:#D6D5D9;}
	.st8{fill:#F1F1F1;}
	.st9{fill:#5B747F;}
	.st10{fill:#F27851;}
	.st11{fill:#D12250;}
	.st12{fill:#E62552;}
	.st13{fill:#F5F7F7;}
	.st14{fill:#EBF2F2;}
	.st15{fill:#E67052;}
	.st16{fill:#353A66;}
	.st17{fill:#FFFFFF;}
</style>
<g>
	<path class="st0" d="M110.17,154.07L6.35,154.59c-10.66-37.7,21.15-49.4,19.06-74.91C20.44,18.96,126.74,18.96,145.9,54.54
		c14.62,27.16,6.89,25.04,32.13,41.2c34.86,22.32,13.47,49.05,0.58,59.05L110.17,154.07z"/>
	<path class="st1" d="M182.32,152.8c0,3.36-7.21,7.7-77.25,7.7c-70.03,0-98.68-2.64-98.68-6.01c0-3.37,28.65-6.19,98.68-6.19
		C175.11,148.31,182.32,149.43,182.32,152.8z"/>
	<g>
		<g>
			<path class="st2" d="M56.01,147.92l1.35-1.82c-28.84-21.36-29.78-53.04-29.79-53.36l-2.26,0.04
				C25.32,93.11,26.24,125.88,56.01,147.92z"/>
		</g>
		<g>
			<path class="st2" d="M26.83,94.49c0,0,1.35-12.75-5.75-12.12C18.06,82.65,16.64,88.43,26.83,94.49z"/>
		</g>
		<g>
			<path class="st2" d="M27.43,99.2c0,0-7.37-11.46-11.62-5.9C14.01,95.68,16.84,101.47,27.43,99.2z"/>
		</g>
		<g>
			<path class="st2" d="M26.83,100.32c0,0-1.39-13.09,5.71-10.64C35.56,90.73,37,96.9,26.83,100.32z"/>
		</g>
		<g>
			<path class="st2" d="M30.16,111.01c0,0-2-13.1,5.18-10.99C38.39,100.92,40.1,107.04,30.16,111.01z"/>
		</g>
		<g>
			<path class="st2" d="M33.5,119.57c0,0-1.95-13.09,5.22-10.96C41.78,109.51,43.47,115.64,33.5,119.57z"/>
		</g>
		<g>
			<path class="st2" d="M39.31,129.29c0,0-4.12-12.81,3.13-12C45.53,117.63,48.21,123.47,39.31,129.29z"/>
		</g>
		<g>
			<path class="st2" d="M44.99,136.49c0,0-3.78-12.89,3.49-11.86C51.55,125.06,54.08,130.96,44.99,136.49z"/>
		</g>
		<g>
			<path class="st2" d="M53.63,144.61c0,0-6.92-11.73,0.07-12.83C56.68,131.32,60.59,136.45,53.63,144.61z"/>
		</g>
		<g>
			<path class="st2" d="M29.26,108.24c0,0-7.38-11.46-11.62-5.89C15.84,104.72,18.66,110.5,29.26,108.24z"/>
		</g>
		<g>
			<path class="st2" d="M32.62,117.12c0,0-7.39-11.46-11.63-5.89C19.18,113.6,22.02,119.38,32.62,117.12z"/>
		</g>
		<g>
			<path class="st2" d="M37.13,125.26c0,0-9.48-9.71-12.27-3.12C23.66,124.95,27.61,130.07,37.13,125.26z"/>
		</g>
		<g>
			<path class="st2" d="M43.04,133.75c0,0-10.29-8.74-12.36-1.78C29.81,134.93,34.19,139.65,43.04,133.75z"/>
		</g>
		<g>
			<path class="st2" d="M50.11,141.21c0,0-11.2-7.24-12.25,0.09C37.43,144.43,42.34,148.51,50.11,141.21z"/>
		</g>
	</g>
	<g>
		<g>
			<g>
				<path class="st3" d="M58.27,112.28l-1.16,1.52c-0.32-0.26-8.02-6.46-14.65-16.81C33.64,83.21,31.11,68.7,35.16,55l1.75,0.47
					C27.51,87.28,57.96,112.03,58.27,112.28z"/>
			</g>
			<g>
				<path class="st3" d="M35.55,57.26c0,0-6.87-8.99,2-18.36C37.55,38.9,42.59,49.15,35.55,57.26z"/>
			</g>
			<g>
				<path class="st3" d="M34.29,67.67c0,0-14.29-1.56-12.89-17.85C21.39,49.82,29.11,50.43,34.29,67.67z"/>
			</g>
			<g>
				<path class="st3" d="M33.84,67.53c0,0,14.44-1.12,15-17.42C48.83,50.11,41.06,50.48,33.84,67.53z"/>
			</g>
			<g>
				<path class="st3" d="M35.94,81.03c0,0-14.44-0.03-14.68-16.3C21.27,64.73,29.04,64.51,35.94,81.03z"/>
			</g>
			<g>
				<path class="st3" d="M35.48,80.93c0,0,14.32-2.64,13.24-18.84C48.72,62.09,40.99,63.29,35.48,80.93z"/>
			</g>
			<g>
				<path class="st3" d="M42.06,94.79c0,0-14.35,2.52-17.29-13.33C24.77,81.46,32.46,79.86,42.06,94.79z"/>
			</g>
			<g>
				<path class="st3" d="M41.58,94.78c0,0,13.79-5.12,10.04-20.75C51.61,74.03,44.13,76.56,41.58,94.78z"/>
			</g>
			<g>
				<path class="st3" d="M50.02,105.33c0,0-13.39,6.26-20.27-8.07C29.75,97.26,36.86,93.68,50.02,105.33z"/>
			</g>
			<g>
				<path class="st3" d="M49.56,105.44c0,0,12.19-8.58,4.56-22.47C54.11,82.97,47.43,87.39,49.56,105.44z"/>
			</g>
		</g>
	</g>
	<g>
		<path class="st3" d="M146.43,151.24c0,0-3.8-50.21,38.56-59.21C184.99,92.03,195.64,135.25,146.43,151.24z"/>
		<path class="st4" d="M184.99,92.03c0,0-23.26,46.58-38.56,59.21C146.43,151.24,196.83,139.05,184.99,92.03z"/>
	</g>
	<g>
		<g>
			<path class="st2" d="M141.84,114.16c22.2-32.42,17.09-62.88,17.03-63.19l-1.3,0.24c0.05,0.3,5.05,30.25-16.82,62.2L141.84,114.16
				z"/>
		</g>
		<g>
			<polygon class="st2" points="157.71,68.52 158.92,67.96 155.06,59.58 153.85,60.14 			"/>
		</g>
		<g>
			<polygon class="st2" points="156.49,77.47 157.56,76.68 152.05,69.28 150.98,70.07 			"/>
		</g>
		<g>
			<polygon class="st2" points="154.02,87.45 155.09,86.66 149.57,79.26 148.51,80.05 			"/>
		</g>
		<g>
			<polygon class="st2" points="150.58,96.32 151.64,95.53 146.13,88.13 145.07,88.93 			"/>
		</g>
		<g>
			<polygon class="st2" points="146.66,105.25 147.72,104.45 142.21,97.06 141.15,97.85 			"/>
		</g>
		<g>
			<polygon class="st2" points="159.09,66.3 163.63,58.26 162.47,57.61 157.93,65.64 			"/>
		</g>
		<g>
			
				<rect x="155.82" y="71.24" transform="matrix(0.6488 -0.7609 0.7609 0.6488 1.6234 147.3326)" class="st2" width="9.23" height="1.33"/>
		</g>
		<g>
			<polygon class="st2" points="155.05,86.84 162.64,81.59 161.88,80.5 154.29,85.74 			"/>
		</g>
		<g>
			
				<rect x="149.93" y="94.29" transform="matrix(0.8503 -0.5263 0.5263 0.8503 -26.8394 95.5566)" class="st2" width="9.23" height="1.32"/>
		</g>
		<g>
			<polygon class="st2" points="144.87,108.94 153.12,104.82 152.53,103.63 144.28,107.76 			"/>
		</g>
		<g>
			<path class="st2" d="M155.48,48.96c-0.49,1.71,0.5,3.49,2.2,3.98c1.7,0.49,3.49-0.49,3.97-2.2c0.49-1.71-0.5-3.49-2.2-3.98
				C157.76,46.27,155.98,47.26,155.48,48.96z"/>
		</g>
		<g>
			<path class="st2" d="M149.97,57.79c-0.37,1.73,0.73,3.45,2.46,3.82c1.74,0.38,3.45-0.72,3.82-2.45c0.38-1.74-0.72-3.45-2.45-3.83
				C152.07,54.96,150.35,56.06,149.97,57.79z"/>
		</g>
		<g>
			<path class="st2" d="M147.54,66.76c-0.93,1.52-0.45,3.5,1.08,4.41c1.51,0.92,3.49,0.44,4.41-1.08c0.92-1.52,0.43-3.49-1.08-4.41
				C150.43,64.75,148.46,65.25,147.54,66.76z"/>
		</g>
		<g>
			<path class="st2" d="M145.07,76.74c-0.92,1.53-0.43,3.5,1.08,4.42c1.52,0.92,3.5,0.43,4.42-1.08c0.92-1.52,0.44-3.5-1.08-4.41
				C147.96,74.74,145.98,75.23,145.07,76.74z"/>
		</g>
		<g>
			<path class="st2" d="M141.63,85.61c-0.92,1.53-0.44,3.5,1.08,4.41c1.51,0.93,3.5,0.45,4.42-1.07c0.92-1.52,0.44-3.49-1.08-4.42
				C144.52,83.61,142.55,84.1,141.63,85.61z"/>
		</g>
		<g>
			<path class="st2" d="M137.7,94.54c-0.92,1.52-0.44,3.49,1.08,4.41c1.52,0.92,3.5,0.43,4.41-1.09c0.92-1.52,0.44-3.48-1.07-4.41
				C140.6,92.54,138.62,93.02,137.7,94.54z"/>
		</g>
		<g>
			<path class="st2" d="M167.69,56.25c0.23,1.75-1.01,3.36-2.77,3.6c-1.76,0.23-3.38-1.01-3.61-2.77c-0.23-1.76,1.01-3.37,2.77-3.6
				C165.84,53.25,167.45,54.49,167.69,56.25z"/>
		</g>
		<g>
			<path class="st2" d="M168.31,67.62c-0.11,1.77-1.63,3.11-3.4,3.01c-1.77-0.1-3.12-1.63-3.01-3.4c0.12-1.77,1.63-3.12,3.41-3.01
				C167.07,64.32,168.41,65.85,168.31,67.62z"/>
		</g>
		<g>
			<path class="st2" d="M167.17,81.55c-0.56,1.69-2.38,2.59-4.06,2.04c-1.69-0.56-2.59-2.38-2.04-4.06c0.55-1.69,2.38-2.6,4.07-2.04
				C166.83,78.04,167.73,79.86,167.17,81.55z"/>
		</g>
		<g>
			<path class="st2" d="M163.35,93.28c-0.65,1.65-2.51,2.48-4.16,1.83c-1.65-0.64-2.48-2.51-1.83-4.16
				c0.64-1.65,2.51-2.47,4.17-1.82C163.18,89.76,164,91.63,163.35,93.28z"/>
		</g>
		<g>
			<path class="st2" d="M157.61,105.42c-0.8,1.59-2.72,2.23-4.32,1.44c-1.58-0.79-2.23-2.73-1.43-4.32
				c0.79-1.59,2.72-2.23,4.31-1.44C157.76,101.91,158.4,103.83,157.61,105.42z"/>
		</g>
	</g>
	<g>
		<g>
			<path class="st5" d="M48.77,46.76c0.01-1.93,1.82-3.49,4.05-3.48l89.94,0.33c2.22,0.01,4.02,1.58,4.01,3.51l-0.64,104.83
				c-0.01,1.93-1.82,3.49-4.05,3.48l-89.94-0.34c-2.22-0.01-4.02-1.58-4-3.51L48.77,46.76z"/>
			<path class="st6" d="M52.14,155.09l89.94,0.34c2.23,0.01,4.04-1.55,4.05-3.48l0.06-9.48l-98-0.37l-0.05,9.48
				C48.13,153.51,49.92,155.08,52.14,155.09z"/>
			<path class="st6" d="M142.76,43.61l-89.94-0.33c-2.22-0.01-4.04,1.55-4.05,3.48l-0.06,10.23l97.99,0.36l0.06-10.23
				C146.78,45.19,144.99,43.62,142.76,43.61z"/>
			<polygon class="st5" points="58.57,146.67 136.01,146.96 135.98,151.04 58.55,150.74 			"/>
			<polygon class="st5" points="59.18,48.12 136.61,48.41 136.59,52.49 59.15,52.2 			"/>
		</g>
		<g>
			<polygon class="st7" points="65.17,62.01 65.2,60.36 135.82,60.9 135.8,62.55 			"/>
			<polygon class="st7" points="130.34,64.4 130.37,61.68 132.79,61.7 132.76,64.42 			"/>
			<polygon class="st7" points="121.29,64.33 121.32,61.61 123.74,61.63 123.7,64.35 			"/>
			<polygon class="st7" points="110.42,64.25 110.46,61.53 112.87,61.55 112.84,64.27 			"/>
			<polygon class="st7" points="101.37,64.18 101.4,61.46 103.81,61.48 103.78,64.2 			"/>
			<polygon class="st7" points="92.31,64.11 92.35,61.39 94.76,61.41 94.73,64.13 			"/>
			<polygon class="st7" points="83.26,64.04 83.29,61.32 85.71,61.34 85.67,64.06 			"/>
			<polygon class="st7" points="72.39,63.95 72.43,61.24 74.84,61.25 74.81,63.97 			"/>
			<polygon class="st7" points="57.7,112.81 58.23,70.62 59.84,70.63 59.31,112.82 			"/>
			<polygon class="st7" points="58.91,74.57 58.93,72.59 62.55,72.62 62.53,74.59 			"/>
			<polygon class="st7" points="58.78,84.31 58.81,82.33 62.43,82.36 62.4,84.34 			"/>
			<polygon class="st7" points="58.68,92.8 58.7,90.82 62.32,90.85 62.3,92.82 			"/>
			<polygon class="st7" points="58.57,101.54 58.59,99.56 62.21,99.59 62.19,101.57 			"/>
			<polygon class="st7" points="58.47,109.57 58.49,107.6 62.11,107.62 62.09,109.6 			"/>
		</g>
		<g>
			<path class="st8" d="M107.65,87.13c0,0,3-4.34,8.79,0c4.86,3.64,22.49,21.13,18.62,42.79c0,0-0.28,2.07-4.41,2.07
				c-4.14,0-4.05-2.21-9.69-3.03c-5.63-0.83-15.76-1.52-15.98-12.83C104.77,104.81,104.33,90.86,107.65,87.13z"/>
			<path class="st9" d="M98.23,75.01h5.8v20.01c0,0,0.27,5.11,4.96,6.62c4.69,1.52,11.59,1.52,13.94,9.38
				c2.34,7.87,5.38,12.97,7.73,13.94c0,0-5.79-1.96-9.52-14.68c-0.82-2.79-3.54-6.02-12.15-4.64c-2.47,0.39-6.48,0.83-7.86-6.21
				L98.23,75.01z"/>
			<path class="st9" d="M114.19,104c0,0-5.33-2.19-3.59-5.65c2.57-5.11,1.29-9.66,1.29-9.66s1.63,4.99,0.32,7.89
				c-1.31,2.9-2.33,4.27,3.19,6.81L114.19,104z"/>
			<path class="st9" d="M111.59,97.36c0,0,2.72-0.56,2.82-2.33c0.1-1.77,0.3-2.88,0.3-2.88s0.06,1.67,0,3.02
				c-0.05,1.07-1.35,3.07-3.59,3.18L111.59,97.36z"/>
			<path class="st9" d="M112.17,95.11c0,0-2.28-1.78-1.68-3.45c0.6-1.67,0.85-2.57,0.85-2.57s-0.71,1.51-1.18,2.78
				c-0.38,1,0.04,3.36,2.05,4.33L112.17,95.11z"/>
			<path class="st9" d="M115.63,104.52c0,0,4.11,3.65,1.58,4.7c-3.71,1.55-3.85,4.58-3.85,4.58s-0.05-3.44,1.93-4.38
				c1.98-0.95,3.27-1.2-0.91-5.13L115.63,104.52z"/>
			<path class="st9" d="M116.24,106.19c0,0-2.76,0.33-3,2.09c-0.25,1.76-0.54,2.84-0.54,2.84s0.08-1.67,0.24-3.01
				c0.14-1.07,1.61-2.95,3.85-2.87L116.24,106.19z"/>
			<path class="st9" d="M117.31,108.2c0,0,2.13,1.96,1.39,3.57c-0.73,1.61-1.06,2.49-1.06,2.49s0.83-1.45,1.41-2.67
				c0.46-0.97,0.24-3.35-1.69-4.49L117.31,108.2z"/>
			<path class="st9" d="M123.43,101.67c0,0-0.64-1.51,0.12-2.17c0.76-0.66,1.13-1.03,1.13-1.03s-0.77,0.55-1.35,1.05
				c-0.46,0.39-0.91,1.68-0.18,2.72L123.43,101.67z"/>
			<path class="st9" d="M118.8,105.24c0,0,2.61-2.35,5.44-0.62c2.83,1.73,3.03,5.65,6.42,6.07c0,0-2.28,0.3-4-1.64
				c-1.73-1.94-2.83-5.75-7.11-3.16L118.8,105.24z"/>
			<path class="st9" d="M121.62,104.29c0,0-0.62-1.87,0.76-2.36c1.37-0.48,2.34-0.55,3.58-2.9c0,0-0.76,2.41-2.24,3.24
				c-1.48,0.83-1.49,0.7-1.42,1.73L121.62,104.29z"/>
			<path class="st9" d="M125.73,109.75c0,0-1.08,0.77-0.79,1.57c0.29,0.8,0.41,1.23,0.41,1.23s-0.34-0.73-0.57-1.34
				c-0.19-0.49,0-1.58,0.96-1.98L125.73,109.75z"/>
			<path class="st9" d="M125.46,107.11c0,0-1.21,1.03-0.39,1.99c0.82,0.95,1.5,1.43,1.47,3.63c0,0,0.41-2.03-0.34-3.27
				c-0.76-1.24-0.81-1.15-0.35-1.84L125.46,107.11z"/>
			<path class="st9" d="M122.26,112.67c0,0-3.99,3.11-1.79,6.18c3.24,4.52,3.13,9.2,3.13,9.2s0.31-5.18-1.41-7.77
				c-1.72-2.59-2.86-3.74,1.21-7.24L122.26,112.67z"/>
			<path class="st9" d="M121.5,119.64c0,0,2.4,0.05,2.86,1.76c0.46,1.71,0.86,2.75,0.86,2.75s-0.3-1.64-0.65-2.95
				c-0.27-1.04-1.78-2.76-3.68-2.45L121.5,119.64z"/>
			<path class="st9" d="M122.47,121.72c0,0-1.53,2.16-0.68,3.68c0.86,1.52,1.26,2.35,1.26,2.35s-0.92-1.35-1.59-2.5
				c-0.53-0.91-0.68-3.29,0.8-4.61L122.47,121.72z"/>
			<path class="st8" d="M95.09,86.97c0,0-3-4.35-8.8,0c-4.86,3.64-22.49,21.13-18.63,42.79c0,0,0.28,2.07,4.42,2.07
				c4.14,0,4.05-2.21,9.69-3.03c5.63-0.83,15.76-1.52,15.98-12.83C97.96,104.64,98.4,90.69,95.09,86.97z"/>
			<path class="st9" d="M104.5,74.84h-5.79v20c0,0-0.28,5.11-4.97,6.62c-4.69,1.52-11.59,1.52-13.94,9.38
				c-2.35,7.86-5.38,12.97-7.73,13.94c0,0,5.78-1.97,9.52-14.68c0.82-2.79,3.54-6.02,12.15-4.64c2.47,0.4,6.48,0.83,7.86-6.21
				L104.5,74.84z"/>
			<path class="st9" d="M88.54,103.83c0,0,5.33-2.19,3.59-5.66c-2.57-5.11-1.28-9.66-1.28-9.66s-1.64,4.99-0.33,7.89
				c1.31,2.9,2.34,4.26-3.19,6.81L88.54,103.83z"/>
			<path class="st9" d="M91.14,97.18c0,0-2.72-0.56-2.82-2.33c-0.11-1.77-0.3-2.88-0.3-2.88s-0.06,1.67,0,3.02
				c0.05,1.07,1.35,3.07,3.59,3.18L91.14,97.18z"/>
			<path class="st9" d="M90.56,94.94c0,0,2.28-1.78,1.68-3.45c-0.6-1.67-0.85-2.57-0.85-2.57s0.72,1.51,1.19,2.78
				c0.38,1.01-0.04,3.36-2.06,4.33L90.56,94.94z"/>
			<path class="st9" d="M87.11,104.35c0,0-4.11,3.65-1.59,4.7c3.71,1.55,3.85,4.59,3.85,4.59s0.05-3.44-1.93-4.39
				c-1.97-0.95-3.27-1.2,0.91-5.13L87.11,104.35z"/>
			<path class="st9" d="M86.49,106.02c0,0,2.76,0.33,3,2.09c0.25,1.76,0.54,2.84,0.54,2.84s-0.08-1.67-0.25-3.01
				c-0.14-1.06-1.6-2.95-3.85-2.87L86.49,106.02z"/>
			<path class="st9" d="M85.43,108.04c0,0-2.13,1.96-1.39,3.57c0.73,1.61,1.06,2.49,1.06,2.49s-0.84-1.44-1.41-2.67
				c-0.46-0.97-0.24-3.35,1.69-4.49L85.43,108.04z"/>
			<path class="st9" d="M79.31,101.5c0,0,0.64-1.51-0.12-2.17c-0.76-0.66-1.13-1.04-1.13-1.04s0.77,0.55,1.36,1.05
				c0.46,0.39,0.91,1.68,0.17,2.72L79.31,101.5z"/>
			<path class="st9" d="M83.94,105.07c0,0-2.61-2.34-5.44-0.62c-2.83,1.72-3.03,5.65-6.42,6.06c0,0,2.28,0.3,4-1.64
				c1.73-1.94,2.83-5.75,7.11-3.16L83.94,105.07z"/>
			<path class="st9" d="M81.12,104.12c0,0,0.62-1.87-0.76-2.36c-1.38-0.48-2.35-0.55-3.59-2.9c0,0,0.76,2.41,2.24,3.24
				c1.49,0.83,1.49,0.7,1.42,1.72L81.12,104.12z"/>
			<path class="st9" d="M77,109.58c0,0,1.08,0.78,0.78,1.57c-0.29,0.8-0.41,1.23-0.41,1.23s0.34-0.73,0.57-1.34
				c0.18-0.49-0.01-1.58-0.97-1.98L77,109.58z"/>
			<path class="st9" d="M77.28,106.94c0,0,1.21,1.03,0.39,1.99c-0.82,0.95-1.5,1.43-1.46,3.63c0,0-0.42-2.03,0.34-3.27
				c0.75-1.24,0.81-1.15,0.34-1.84L77.28,106.94z"/>
			<path class="st9" d="M80.48,112.5c0,0,3.99,3.11,1.79,6.18c-3.24,4.53-3.13,9.2-3.13,9.2s-0.31-5.18,1.41-7.77
				c1.72-2.59,2.86-3.74-1.22-7.24L80.48,112.5z"/>
			<path class="st9" d="M81.23,119.47c0,0-2.4,0.05-2.86,1.76c-0.46,1.71-0.86,2.76-0.86,2.76s0.31-1.64,0.65-2.95
				c0.27-1.04,1.79-2.75,3.68-2.45L81.23,119.47z"/>
			<path class="st9" d="M80.27,121.56c0,0,1.53,2.15,0.67,3.67c-0.86,1.52-1.26,2.36-1.26,2.36s0.92-1.35,1.58-2.5
				c0.53-0.92,0.68-3.29-0.8-4.61L80.27,121.56z"/>
			<path class="st8" d="M104.93,77.82c0,0.4-0.32,0.72-0.72,0.72h-5.59c-0.4,0-0.73-0.32-0.73-0.72l0,0c0-0.4,0.32-0.72,0.73-0.72
				h5.59C104.62,77.1,104.93,77.42,104.93,77.82L104.93,77.82z"/>
			<path class="st8" d="M104.93,81.13c0,0.4-0.32,0.72-0.72,0.72h-5.59c-0.4,0-0.73-0.32-0.73-0.72l0,0c0-0.4,0.32-0.72,0.73-0.72
				h5.59C104.62,80.41,104.93,80.73,104.93,81.13L104.93,81.13z"/>
			<path class="st8" d="M104.93,86.1c0,0.4-0.32,0.72-0.72,0.72h-5.59c-0.4,0-0.73-0.32-0.73-0.72l0,0c0-0.4,0.32-0.72,0.73-0.72
				h5.59C104.62,85.37,104.93,85.7,104.93,86.1L104.93,86.1z"/>
			<path class="st8" d="M104.93,90.24c0,0.4-0.32,0.72-0.72,0.72h-5.59c-0.4,0-0.73-0.32-0.73-0.72l0,0c0-0.4,0.32-0.72,0.73-0.72
				h5.59C104.62,89.51,104.93,89.84,104.93,90.24L104.93,90.24z"/>
		</g>
	</g>
	<g>
		<g>
			<g>
				<path class="st10" d="M58.97,156.88c0.48,6.05,2.77,18.53,5.34,17.68c2.57-0.85,3.74-2.19,2.12-2.11
					c-1.62,0.08-1.73-0.07-1.82-0.53c-0.6-2.92,0.3-9.08,0.11-13.54C64.5,153.22,58.55,151.59,58.97,156.88z"/>
				<path class="st2" d="M62.83,173.75c0,0,2.54,0.15,3.59-1.29c0,0,2.62-0.53,1.26,0.69C66.32,174.36,63.45,175.99,62.83,173.75z"
					/>
			</g>
			<path class="st11" d="M49.99,145.69c0,0,9.39-3.58,12.99,0.14c3.23,3.35,2.72,21.1,2.72,21.1s-2.31,2.19-5.39,1.75l-3.81-12.77
				c0,0-6.47,1.57-9.3-0.45c-6.71-4.82-1.63-7.37-1.63-7.37L49.99,145.69z"/>
		</g>
		<path class="st10" d="M44.89,126.18c0.71-0.25,2.98-0.23,4,1.67c1.37,2.53,1.38,8.4,4.77,10.47c3.39,2.07,5.74,0.78,7.43,0.12
			c1.69-0.66,2.05-1.72,3.08-1.99c1.03-0.28,1.3,0.96-1.15,2.66c-1.18,0.82-6.49,5.55-10.99,3.83
			C46.14,140.69,40.65,127.67,44.89,126.18z"/>
		<g>
			<g>
				<path class="st10" d="M43.44,161.49c-3.48,4.98-9.64,16.06-7.11,17.04c2.53,0.98,4.28,0.68,2.97-0.28
					c-1.31-0.96-1.29-1.15-1.07-1.57c1.39-2.64,6-6.82,8.68-10.38C50.04,162.17,46.48,157.13,43.44,161.49z"/>
				<path class="st2" d="M35.71,176.96c0,0,1.86,1.72,3.6,1.29c0,0,2.36,1.26,0.54,1.33C38.01,179.65,34.76,179.09,35.71,176.96z"/>
			</g>
			<path class="st12" d="M43.62,147.14c0,0,9.52,3.2,9.93,8.36c0.37,4.64-11.3,18.02-11.3,18.02s-3.18,0.22-5.27-2.07l5.17-12.28
				c0,0-5.99-2.9-6.89-6.26c-2.12-7.98,3.42-6.73,3.42-6.73L43.62,147.14z"/>
		</g>
		<path class="st13" d="M45.34,125.95c0,0-3.22,0.65-2.39,5.47c0.83,4.82,1.86,6.81,1.86,6.81s3.18,0.41,7.46-2.2
			C52.27,136.03,49.74,124.39,45.34,125.95z"/>
		<path class="st14" d="M49.92,144.07c1.19-4.2,0.59-9.77-0.84-13.71c-1.99-5.46-7.32-4.98-10.47-4.07
			c-3.15,0.91-8.34,2.27-5.49,8.94c1.98,4.65,1.25,7.78,0.43,12.69l0,0c-0.03,0.13-0.05,0.25-0.08,0.38
			c-0.01-0.01-0.01-0.01-0.01-0.01c0,0,0.01,0.01,0.01,0.01C31.73,153.73,48.58,148.84,49.92,144.07z"/>
		<path class="st15" d="M39.79,122.06c0,0,1.49,2.42-0.16,3.99c-1.7,1.6,5.9,4.62,5.56,3.15c-0.45-1.91-1.56-2.94-0.86-5.26
			L39.79,122.06z"/>
		<path class="st10" d="M43.33,116.76c1.81,1.37,4.33,7.98,2.78,9.67c-0.69,0.73-3.86,0.34-6.15-2.44c-0.93-1.13-2.19-3.32-1.2-5.78
			C39.21,117.1,41.22,115.17,43.33,116.76z"/>
		<path class="st16" d="M45.1,117.39c0.46,0.82,0.37,1.03-2.16,1.7c-2.52,0.68-2.98,0.56-2.65,1.14c0.96,1.71-0.9,1.56,0.27,3.61
			c1.17,2.04-1.12,0.97-2.27-0.68c-0.22-0.33-1.48-1.94-0.54-4.74C38.87,115.14,43.4,114.41,45.1,117.39z"/>
		<path class="st16" d="M37.75,118.42c-1.03,2.6,0.31,4.41,0.54,4.74c0.85,1.23,2.35,2.16,2.56,1.67c0.26-0.59-1.41-0.62-1.12-2.18
			c0.29-1.56-0.74-1.77-0.65-3.11c0.09-1.34,1.1-1.2,3.95-1.97c1.16-0.31,1.33-0.79,1.14-1.25
			C42.13,114.7,38.84,115.67,37.75,118.42z"/>
		<path class="st16" d="M40.8,124.53c0,0,3.03,1.71,4.4,0.88c1.38-0.84,0.97-2.71,1.39-2.15c0.58,0.78,0.76,3.98-1.28,3.93
			c-2.04-0.06-4.21-1.5-5.4-2.49L40.8,124.53z"/>
		<polygon class="st17" points="50.54,139.36 64.17,136.45 57.35,146.1 43.39,150.68 		"/>
		<path class="st10" d="M35.03,128.71c0.76,0.09,2.78,1.12,2.86,3.26c0.11,2.88-2.47,8.14-0.35,11.5c2.13,3.36,4.81,3.24,6.61,3.39
			c1.81,0.15,2.6-0.63,3.65-0.43c1.03,0.2,0.74,1.43-2.21,1.88c-1.42,0.22-8.27,2.12-11.55-1.41
			C29.76,142.28,30.58,128.17,35.03,128.71z"/>
		<path class="st13" d="M35.59,128.07c0,0-3.24-0.52-4.16,4.28c-0.92,4.81-0.66,7.02-0.66,7.02s2.84,1.5,7.76,0.57
			C38.52,139.94,40.25,128.16,35.59,128.07z"/>
	</g>
</g>
</svg>
